<svg height="512pt" viewBox="0 -77 512 512" width="512pt" xmlns="http://www.w3.org/2000/svg"><path d="m392.53125 349.867188h93.867188c9.425781 0 17.070312-7.640626 17.070312-17.066407v-307.199219c0-9.425781-7.644531-17.070312-17.070312-17.070312h-460.796876c-9.425781 0-17.070312 7.644531-17.070312 17.070312v307.199219c0 9.425781 7.644531 17.066407 17.070312 17.066407zm0 0" fill="#2e7d32"/><path d="m372.667969 349.867188h88.984375c4.414062-.113282 8.605468-1.972657 11.644531-5.175782 3.042969-3.199218 4.683594-7.476562 4.570313-11.890625v-307.199219c.113281-4.414062-1.53125-8.695312-4.570313-11.894531s-7.230469-5.0625-11.644531-5.175781h-436.90625c-4.414063.113281-8.601563 1.976562-11.640625 5.175781-3.042969 3.199219-4.6875 7.480469-4.570313 11.894531v307.199219c-.117187 4.414063 1.527344 8.691407 4.570313 11.890625 3.039062 3.203125 7.226562 5.0625 11.640625 5.175782zm0 0" fill="#4caf50"/><path d="m349.867188 179.199219c0 51.84375-42.027344 93.867187-93.867188 93.867187s-93.867188-42.023437-93.867188-93.867187c0-51.839844 42.027344-93.867188 93.867188-93.867188s93.867188 42.027344 93.867188 93.867188zm0 0" fill="#c52828"/><path d="m324.265625 179.199219c0-51.839844-36.292969-93.867188-81.066406-93.867188-44.769531 0-81.066407 42.027344-81.066407 93.867188 0 51.84375 36.296876 93.867187 81.066407 93.867187 44.773437 0 81.066406-42.023437 81.066406-93.867187zm0 0" fill="#f44335"/><path d="m486.398438 0h-460.796876c-14.140624 0-25.601562 11.460938-25.601562 25.601562v307.199219c0 14.136719 11.460938 25.597657 25.601562 25.597657h460.796876c14.140624 0 25.601562-11.460938 25.601562-25.597657v-307.199219c0-14.140624-11.460938-25.601562-25.601562-25.601562zm8.535156 332.800781c0 4.710938-3.820313 8.53125-8.535156 8.53125h-460.796876c-4.714843 0-8.535156-3.820312-8.535156-8.53125v-307.199219c0-4.714843 3.820313-8.535156 8.535156-8.535156h460.796876c4.714843 0 8.535156 3.820313 8.535156 8.535156zm0 0"/><path d="m256 76.800781c-56.554688 0-102.398438 45.84375-102.398438 102.398438 0 56.554687 45.84375 102.402343 102.398438 102.402343s102.398438-45.847656 102.398438-102.402343c-.058594-56.527344-45.871094-102.339844-102.398438-102.398438zm0 187.730469c-47.128906 0-85.332031-38.203125-85.332031-85.332031 0-47.128907 38.203125-85.332031 85.332031-85.332031s85.332031 38.203124 85.332031 85.332031c-.050781 47.109375-38.226562 85.28125-85.332031 85.332031zm0 0"/></svg>