<?xml version="1.0" encoding="utf-8"?>
<!-- Generator: Adobe Illustrator 21.0.0, SVG Export Plug-In . SVG Version: 6.00 Build 0)  -->
<svg version="1.1" id="Layer_1" xmlns="http://www.w3.org/2000/svg" xmlns:xlink="http://www.w3.org/1999/xlink" x="0px" y="0px"
	 viewBox="0 0 200 78" style="enable-background:new 0 0 200 78;" xml:space="preserve">
<style type="text/css">
	.st0{fill:#40406B;}
	.st1{fill:#D9D16F;}
	.st2{fill:#BCBCE2;}
	.st3{fill:#222242;}
</style>
<g>
	<g>
		<g>
			<circle class="st0" cx="38.8" cy="38.7" r="30.4"/>
		</g>
		<g>
			<circle class="st1" cx="38.8" cy="73.5" r="4.1"/>
		</g>
		<g>
			<rect x="37.8" y="53.3" class="st1" width="2" height="18.9"/>
		</g>
		<g>
			<g>
				<circle class="st1" cx="38.8" cy="4.1" r="4.1"/>
			</g>
			<g>
				<rect x="37.8" y="5.4" class="st1" width="2" height="18.9"/>
			</g>
			<g>
				<circle class="st1" cx="38.8" cy="4.1" r="4.1"/>
			</g>
			<g>
				<rect x="37.8" y="5.4" class="st1" width="2" height="18.9"/>
			</g>
		</g>
		<g>
			<g>
				<circle class="st1" cx="38.8" cy="73.5" r="4.1"/>
			</g>
			<g>
				<rect x="37.8" y="53.3" class="st1" width="2" height="18.9"/>
			</g>
		</g>
		<g>
			<g>
				<circle class="st1" cx="73.5" cy="38.8" r="4.1"/>
			</g>
			<g>
				<rect x="53.3" y="37.8" class="st1" width="18.9" height="2"/>
			</g>
			<g>
				<circle class="st1" cx="73.5" cy="38.8" r="4.1"/>
			</g>
			<g>
				<rect x="53.3" y="37.8" class="st1" width="18.9" height="2"/>
			</g>
		</g>
		<g>
			<g>
				<circle class="st1" cx="4.1" cy="38.8" r="4.1"/>
			</g>
			<g>
				<rect x="5.4" y="37.8" class="st1" width="18.9" height="2"/>
			</g>
		</g>
		<g>
			<g>
				<ellipse transform="matrix(0.7071 -0.7071 0.7071 0.7071 8.4956 48.9584)" class="st1" cx="63.3" cy="14.2" rx="4.1" ry="4.1"/>
			</g>
			<g>
				
					<rect x="46.3" y="20.9" transform="matrix(0.7071 -0.7071 0.7071 0.7071 0.8468 45.7902)" class="st1" width="18.9" height="2"/>
			</g>
			<g>
				<ellipse transform="matrix(0.7071 -0.7071 0.7071 0.7071 8.4956 48.9584)" class="st1" cx="63.3" cy="14.2" rx="4.1" ry="4.1"/>
			</g>
			<g>
				
					<rect x="46.3" y="20.9" transform="matrix(0.7071 -0.7071 0.7071 0.7071 0.8468 45.7902)" class="st1" width="18.9" height="2"/>
			</g>
		</g>
		<g>
			<g>
				
					<ellipse transform="matrix(0.7071 -0.7071 0.7071 0.7071 -40.6261 28.6115)" class="st1" cx="14.2" cy="63.3" rx="4.1" ry="4.1"/>
			</g>
			<g>
				
					<rect x="12.4" y="54.7" transform="matrix(0.7071 -0.7071 0.7071 0.7071 -32.9773 31.7798)" class="st1" width="18.9" height="2"/>
			</g>
		</g>
		<g>
			<g>
				
					<ellipse transform="matrix(0.7071 -0.7071 0.7071 0.7071 -26.2387 63.3459)" class="st1" cx="63.3" cy="63.3" rx="4.1" ry="4.1"/>
			</g>
			<g>
				
					<rect x="54.7" y="46.3" transform="matrix(0.7071 -0.7071 0.7071 0.7071 -23.0705 55.697)" class="st1" width="2" height="18.9"/>
			</g>
			<g>
				
					<ellipse transform="matrix(0.7071 -0.7071 0.7071 0.7071 -26.2387 63.3459)" class="st1" cx="63.3" cy="63.3" rx="4.1" ry="4.1"/>
			</g>
			<g>
				
					<rect x="54.7" y="46.3" transform="matrix(0.7071 -0.7071 0.7071 0.7071 -23.0705 55.697)" class="st1" width="2" height="18.9"/>
			</g>
		</g>
		<g>
			<g>
				
					<ellipse transform="matrix(0.7071 -0.7071 0.7071 0.7071 -5.8918 14.2241)" class="st1" cx="14.2" cy="14.2" rx="4.1" ry="4.1"/>
			</g>
			<g>
				
					<rect x="20.9" y="12.4" transform="matrix(0.7071 -0.7071 0.7071 0.7071 -9.0601 21.8729)" class="st1" width="2" height="18.9"/>
			</g>
		</g>
		<g>
			<circle class="st2" cx="38.8" cy="38.7" r="20"/>
		</g>
		<g>
			<g>
				<path class="st0" d="M34.1,33.1c1,1,1.2,1.4,1,1.6c-0.2,0.2-0.5,0.1-1.6-1c-1-1-1-1.2-0.8-1.4C32.9,32.2,33,32.1,34.1,33.1z"/>
			</g>
			<g>
				<path class="st0" d="M31.9,36.3c1.4,0.4,1.7,0.6,1.7,0.9c-0.1,0.3-0.4,0.3-1.9-0.1c-1.4-0.4-1.4-0.5-1.4-0.8
					C30.5,36,30.5,35.9,31.9,36.3z"/>
			</g>
			<g>
				<path class="st0" d="M31.7,40c1.4-0.4,1.8-0.4,1.9-0.1c0.1,0.3-0.2,0.5-1.6,0.9c-1.4,0.4-1.5,0.3-1.6,0S30.2,40.4,31.7,40z"/>
			</g>
			<g>
				<path class="st0" d="M33.3,43.5c1-1,1.4-1.2,1.6-1c0.2,0.2,0.1,0.5-1,1.6c-1,1-1.2,1-1.4,0.8C32.3,44.6,32.3,44.5,33.3,43.5z"/>
			</g>
			<g>
				<path class="st0" d="M36.4,45.6c0.4-1.4,0.6-1.7,0.9-1.7c0.3,0.1,0.3,0.4-0.1,1.9c-0.4,1.4-0.5,1.4-0.8,1.4
					C36.2,47.1,36.1,47,36.4,45.6z"/>
			</g>
			<g>
				<path class="st0" d="M40.2,45.9c-0.4-1.4-0.4-1.8-0.1-1.9c0.3-0.1,0.5,0.2,0.9,1.6c0.4,1.4,0.3,1.5,0,1.6
					C40.7,47.3,40.6,47.3,40.2,45.9z"/>
			</g>
			<g>
				<path class="st0" d="M43.6,44.2c-1-1-1.2-1.4-1-1.6c0.2-0.2,0.5-0.1,1.6,1c1,1,1,1.2,0.8,1.4C44.8,45.2,44.7,45.3,43.6,44.2z"/>
			</g>
			<g>
				<path class="st0" d="M45.8,41.1c-1.4-0.4-1.7-0.6-1.7-0.9c0.1-0.3,0.4-0.3,1.9,0.1s1.4,0.5,1.4,0.8
					C47.2,41.4,47.2,41.5,45.8,41.1z"/>
			</g>
			<g>
				<path class="st0" d="M46.1,37.3c-1.4,0.4-1.8,0.4-1.9,0.1c-0.1-0.3,0.2-0.5,1.6-0.9c1.4-0.4,1.5-0.3,1.6,0
					C47.5,36.8,47.5,36.9,46.1,37.3z"/>
			</g>
			<g>
				<path class="st0" d="M44.4,33.9c-1,1-1.4,1.2-1.6,1c-0.2-0.2-0.1-0.5,1-1.6c1-1,1.2-1,1.4-0.8C45.4,32.8,45.4,32.9,44.4,33.9z"
					/>
			</g>
			<g>
				<path class="st0" d="M41.3,31.8c-0.4,1.4-0.6,1.7-0.9,1.7c-0.3-0.1-0.3-0.4,0.1-1.9c0.4-1.4,0.5-1.4,0.8-1.4
					C41.5,30.3,41.7,30.4,41.3,31.8z"/>
			</g>
			<g>
				<path class="st0" d="M37.5,31.5c0.4,1.4,0.4,1.8,0.1,1.9c-0.3,0.1-0.5-0.2-0.9-1.6c-0.4-1.4-0.3-1.5,0-1.6
					C37,30.1,37.1,30.1,37.5,31.5z"/>
			</g>
		</g>
	</g>
	<g>
		<g>
			<g>
				<path class="st3" d="M92.5,37c-1.5-0.8-2.6-1.8-3.4-3.2c-0.8-1.4-1.2-2.9-1.2-4.7c0-1.7,0.4-3.3,1.2-4.7c0.8-1.4,2-2.4,3.4-3.2
					c1.5-0.8,3.1-1.1,4.9-1.1c1.7,0,3.2,0.3,4.5,0.9c1.3,0.6,2.4,1.4,3.2,2.6l-3.7,3.3c-1.1-1.3-2.3-2-3.8-2c-1.2,0-2.2,0.4-2.9,1.2
					c-0.7,0.8-1.1,1.8-1.1,3.1c0,1.3,0.4,2.4,1.1,3.1c0.7,0.8,1.7,1.2,2.9,1.2c1.4,0,2.7-0.7,3.8-2l3.7,3.3c-0.9,1.1-1.9,2-3.2,2.6
					c-1.3,0.6-2.8,0.9-4.5,0.9C95.6,38.2,93.9,37.8,92.5,37z"/>
			</g>
			<g>
				<path class="st3" d="M109.4,37c-1.5-0.8-2.6-1.8-3.5-3.2c-0.8-1.4-1.3-2.9-1.3-4.6c0-1.7,0.4-3.3,1.3-4.6c0.8-1.4,2-2.4,3.5-3.2
					c1.5-0.8,3.1-1.2,5-1.2c1.8,0,3.5,0.4,5,1.2c1.5,0.8,2.6,1.8,3.5,3.2c0.8,1.4,1.3,2.9,1.3,4.6c0,1.7-0.4,3.3-1.3,4.6
					c-0.8,1.4-2,2.4-3.5,3.2c-1.5,0.8-3.1,1.2-5,1.2C112.6,38.2,110.9,37.8,109.4,37z M116.4,33c0.6-0.4,1-0.9,1.4-1.5
					c0.3-0.6,0.5-1.4,0.5-2.3c0-0.9-0.2-1.6-0.5-2.3c-0.3-0.6-0.8-1.1-1.4-1.5c-0.6-0.4-1.2-0.5-2-0.5c-0.7,0-1.4,0.2-2,0.5
					c-0.6,0.4-1,0.9-1.4,1.5s-0.5,1.4-0.5,2.3c0,0.9,0.2,1.6,0.5,2.3c0.3,0.6,0.8,1.1,1.4,1.5c0.6,0.4,1.2,0.5,2,0.5
					C115.1,33.5,115.8,33.3,116.4,33z"/>
			</g>
			<g>
				<path class="st3" d="M132.6,33.5H131v4.3h-5.8V20.6h8.3c1.6,0,3,0.3,4.1,0.8c1.2,0.5,2.1,1.3,2.7,2.3c0.6,1,1,2.1,1,3.4
					c0,1.2-0.3,2.3-0.8,3.2c-0.6,0.9-1.4,1.6-2.4,2.2l3.6,5.3h-6.2L132.6,33.5z M134.9,25.6c-0.4-0.4-1-0.5-1.8-0.5H131v4h2.1
					c0.8,0,1.4-0.2,1.8-0.5c0.4-0.4,0.6-0.8,0.6-1.5C135.5,26.5,135.3,26,134.9,25.6z"/>
			</g>
			<g>
				<path class="st3" d="M146.6,37c-1.5-0.8-2.6-1.8-3.5-3.2s-1.3-2.9-1.3-4.6c0-1.7,0.4-3.3,1.3-4.6c0.8-1.4,2-2.4,3.5-3.2
					c1.5-0.8,3.1-1.2,5-1.2c1.8,0,3.5,0.4,5,1.2c1.5,0.8,2.6,1.8,3.5,3.2c0.8,1.4,1.3,2.9,1.3,4.6c0,1.7-0.4,3.3-1.3,4.6
					c-0.8,1.4-2,2.4-3.5,3.2c-1.5,0.8-3.1,1.2-5,1.2C149.7,38.2,148,37.8,146.6,37z M153.5,33c0.6-0.4,1-0.9,1.4-1.5
					c0.3-0.6,0.5-1.4,0.5-2.3c0-0.9-0.2-1.6-0.5-2.3c-0.3-0.6-0.8-1.1-1.4-1.5c-0.6-0.4-1.2-0.5-2-0.5c-0.7,0-1.4,0.2-2,0.5
					c-0.6,0.4-1,0.9-1.4,1.5c-0.3,0.6-0.5,1.4-0.5,2.3c0,0.9,0.2,1.6,0.5,2.3c0.3,0.6,0.8,1.1,1.4,1.5c0.6,0.4,1.2,0.5,2,0.5
					C152.3,33.5,152.9,33.3,153.5,33z"/>
			</g>
			<g>
				<path class="st3" d="M179.3,20.6v17.2h-4.8L168,30v7.8h-5.6V20.6h4.8l6.5,7.8v-7.8H179.3z"/>
			</g>
			<g>
				<path class="st3" d="M192.9,34.8h-6.5l-1.2,3h-5.9l7.5-17.2h5.7l7.5,17.2h-6L192.9,34.8z M191.3,30.6l-1.7-4.3l-1.7,4.3H191.3z"
					/>
			</g>
		</g>
		<g>
			<g>
				<path class="st0" d="M88.2,43.7c-0.2-0.2-0.3-0.4-0.3-0.7c0-0.3,0.1-0.5,0.3-0.7c0.2-0.2,0.4-0.3,0.7-0.3c0.3,0,0.5,0.1,0.7,0.3
					c0.2,0.2,0.3,0.4,0.3,0.7c0,0.3-0.1,0.5-0.3,0.7c-0.2,0.2-0.4,0.3-0.7,0.3C88.7,44,88.4,43.9,88.2,43.7z M88.2,45.6h1.5v8.3
					h-1.5V45.6z"/>
				<path class="st0" d="M98.9,46.4c0.6,0.6,0.9,1.5,0.9,2.7v4.8h-1.5v-4.6c0-0.8-0.2-1.4-0.6-1.8c-0.4-0.4-0.9-0.6-1.7-0.6
					c-0.8,0-1.5,0.2-1.9,0.7c-0.5,0.5-0.7,1.2-0.7,2.1v4.3H92v-8.3h1.4v1.3c0.3-0.4,0.7-0.8,1.2-1c0.5-0.2,1.1-0.3,1.8-0.3
					C97.5,45.5,98.3,45.8,98.9,46.4z"/>
			</g>
			<g>
				<path class="st0" d="M113.2,48.9c0.4,0.5,0.6,1.1,0.6,1.9c0,1-0.4,1.8-1.2,2.4c-0.8,0.6-2,0.8-3.5,0.8H103V42.1h5.8
					c1.4,0,2.6,0.3,3.3,0.8c0.8,0.6,1.2,1.3,1.2,2.3c0,0.6-0.1,1.1-0.4,1.5c-0.3,0.5-0.7,0.8-1.2,1.1
					C112.3,48,112.9,48.4,113.2,48.9z M105.7,44.2V47h2.7c0.7,0,1.2-0.1,1.5-0.4c0.3-0.2,0.5-0.6,0.5-1c0-0.5-0.2-0.8-0.5-1
					c-0.3-0.2-0.9-0.3-1.5-0.3H105.7z M110.5,51.5c0.4-0.2,0.5-0.6,0.5-1.1c0-1-0.7-1.5-2.2-1.5h-3.2v2.9h3.2
					C109.6,51.9,110.2,51.8,110.5,51.5z"/>
				<path class="st0" d="M122,45.7c0.8,0.7,1.1,1.7,1.1,3v5.2h-2.5v-1.1c-0.5,0.8-1.4,1.3-2.8,1.3c-0.7,0-1.3-0.1-1.8-0.4
					c-0.5-0.2-0.9-0.6-1.2-1c-0.3-0.4-0.4-0.9-0.4-1.4c0-0.8,0.3-1.5,1-2c0.6-0.5,1.6-0.7,3-0.7h2.1c0-0.6-0.2-1-0.5-1.3
					c-0.3-0.3-0.9-0.5-1.6-0.5c-0.5,0-1,0.1-1.4,0.2c-0.5,0.2-0.9,0.4-1.2,0.6l-0.9-1.8c0.5-0.3,1.1-0.6,1.8-0.8
					c0.7-0.2,1.4-0.3,2.1-0.3C120.1,44.7,121.2,45,122,45.7z M119.7,52c0.3-0.2,0.6-0.5,0.7-0.9v-0.9h-1.8c-1.1,0-1.6,0.4-1.6,1.1
					c0,0.3,0.1,0.6,0.4,0.8c0.3,0.2,0.6,0.3,1.1,0.3C119,52.3,119.4,52.2,119.7,52z"/>
				<path class="st0" d="M133.1,45.7c0.7,0.7,1,1.7,1,3v5.2h-2.6v-4.8c0-0.7-0.2-1.3-0.5-1.6c-0.3-0.4-0.8-0.5-1.4-0.5
					c-0.7,0-1.2,0.2-1.6,0.6c-0.4,0.4-0.6,1-0.6,1.8v4.5h-2.6v-9.1h2.5v1.1c0.3-0.4,0.8-0.7,1.3-0.9c0.5-0.2,1.1-0.3,1.7-0.3
					C131.5,44.7,132.4,45,133.1,45.7z"/>
				<path class="st0" d="M145.3,44.8v7.6c0,1.7-0.4,2.9-1.3,3.7c-0.9,0.8-2.1,1.2-3.8,1.2c-0.9,0-1.7-0.1-2.5-0.3
					c-0.8-0.2-1.4-0.5-2-0.9l1-1.9c0.4,0.3,0.9,0.6,1.5,0.8c0.6,0.2,1.2,0.3,1.8,0.3c0.9,0,1.6-0.2,2-0.6c0.4-0.4,0.7-1,0.7-1.9
					v-0.4c-0.7,0.8-1.6,1.1-2.9,1.1c-0.8,0-1.6-0.2-2.3-0.5c-0.7-0.4-1.2-0.9-1.6-1.5c-0.4-0.7-0.6-1.4-0.6-2.3
					c0-0.9,0.2-1.6,0.6-2.3c0.4-0.7,1-1.2,1.6-1.5c0.7-0.4,1.5-0.5,2.3-0.5c1.3,0,2.3,0.4,3,1.3v-1.2H145.3z M142,50.7
					c0.4-0.4,0.7-0.9,0.7-1.6c0-0.7-0.2-1.2-0.7-1.6c-0.4-0.4-1-0.6-1.7-0.6c-0.7,0-1.3,0.2-1.7,0.6c-0.5,0.4-0.7,1-0.7,1.6
					c0,0.7,0.2,1.2,0.7,1.6c0.5,0.4,1,0.6,1.7,0.6C141,51.3,141.6,51.1,142,50.7z"/>
				<path class="st0" d="M147.1,41.4h2.6v12.6h-2.6V41.4z"/>
				<path class="st0" d="M158.4,45.7c0.8,0.7,1.1,1.7,1.1,3v5.2h-2.5v-1.1c-0.5,0.8-1.4,1.3-2.8,1.3c-0.7,0-1.3-0.1-1.8-0.4
					c-0.5-0.2-0.9-0.6-1.2-1c-0.3-0.4-0.4-0.9-0.4-1.4c0-0.8,0.3-1.5,1-2c0.6-0.5,1.6-0.7,3-0.7h2.1c0-0.6-0.2-1-0.5-1.3
					c-0.3-0.3-0.9-0.5-1.6-0.5c-0.5,0-1,0.1-1.4,0.2c-0.5,0.2-0.9,0.4-1.2,0.6l-0.9-1.8c0.5-0.3,1.1-0.6,1.8-0.8
					c0.7-0.2,1.4-0.3,2.1-0.3C156.6,44.7,157.7,45,158.4,45.7z M156.2,52c0.3-0.2,0.6-0.5,0.7-0.9v-0.9h-1.8c-1.1,0-1.6,0.4-1.6,1.1
					c0,0.3,0.1,0.6,0.4,0.8c0.3,0.2,0.6,0.3,1.1,0.3C155.4,52.3,155.8,52.2,156.2,52z"/>
				<path class="st0" d="M170.6,41.4v12.6h-2.5v-1c-0.7,0.8-1.6,1.2-2.8,1.2c-0.9,0-1.6-0.2-2.3-0.6c-0.7-0.4-1.2-0.9-1.6-1.6
					c-0.4-0.7-0.6-1.5-0.6-2.5c0-0.9,0.2-1.8,0.6-2.5c0.4-0.7,0.9-1.3,1.6-1.6c0.7-0.4,1.5-0.6,2.3-0.6c1.2,0,2.1,0.4,2.7,1.1v-4.4
					H170.6z M167.4,51.2c0.4-0.5,0.7-1.1,0.7-1.8s-0.2-1.4-0.7-1.8c-0.4-0.5-1-0.7-1.7-0.7c-0.7,0-1.2,0.2-1.7,0.7
					c-0.4,0.5-0.7,1.1-0.7,1.8s0.2,1.4,0.7,1.8c0.4,0.5,1,0.7,1.7,0.7C166.4,51.9,166.9,51.7,167.4,51.2z"/>
				<path class="st0" d="M181.3,50.1h-6.9c0.1,0.6,0.4,1,0.9,1.3c0.5,0.3,1,0.5,1.7,0.5c0.5,0,0.9-0.1,1.3-0.2
					c0.4-0.1,0.7-0.4,1-0.7l1.4,1.5c-0.9,1-2.1,1.5-3.8,1.5c-1,0-1.9-0.2-2.7-0.6c-0.8-0.4-1.4-1-1.8-1.7c-0.4-0.7-0.6-1.5-0.6-2.4
					c0-0.9,0.2-1.7,0.6-2.4c0.4-0.7,1-1.3,1.7-1.7c0.7-0.4,1.6-0.6,2.5-0.6c0.9,0,1.7,0.2,2.4,0.6c0.7,0.4,1.3,0.9,1.7,1.6
					c0.4,0.7,0.6,1.5,0.6,2.5C181.3,49.5,181.3,49.7,181.3,50.1z M175.1,47.2c-0.4,0.3-0.7,0.8-0.7,1.4h4.5c-0.1-0.6-0.3-1-0.7-1.4
					c-0.4-0.3-0.9-0.5-1.5-0.5C176,46.7,175.5,46.9,175.1,47.2z"/>
				<path class="st0" d="M183.2,53.8c-0.7-0.2-1.3-0.4-1.7-0.7l0.9-1.9c0.4,0.3,0.9,0.5,1.5,0.6c0.6,0.2,1.1,0.2,1.7,0.2
					c1.1,0,1.7-0.3,1.7-0.8c0-0.3-0.2-0.4-0.5-0.6c-0.3-0.1-0.8-0.2-1.4-0.3c-0.7-0.1-1.4-0.2-1.8-0.4c-0.5-0.1-0.9-0.4-1.3-0.8
					c-0.4-0.4-0.5-0.9-0.5-1.6c0-0.6,0.2-1.1,0.5-1.5c0.3-0.4,0.8-0.8,1.5-1c0.6-0.2,1.4-0.4,2.3-0.4c0.6,0,1.3,0.1,1.9,0.2
					c0.6,0.1,1.2,0.3,1.6,0.6l-0.9,1.9c-0.8-0.5-1.7-0.7-2.6-0.7c-0.6,0-1,0.1-1.3,0.2c-0.3,0.2-0.4,0.4-0.4,0.6
					c0,0.3,0.2,0.5,0.5,0.6c0.3,0.1,0.8,0.2,1.5,0.3c0.7,0.1,1.4,0.3,1.8,0.4c0.5,0.1,0.9,0.4,1.2,0.8c0.3,0.4,0.5,0.9,0.5,1.6
					c0,0.6-0.2,1.1-0.5,1.5s-0.8,0.8-1.5,1c-0.6,0.2-1.4,0.4-2.3,0.4C184.7,54.1,184,54,183.2,53.8z"/>
				<path class="st0" d="M199,45.7c0.7,0.7,1,1.7,1,3v5.2h-2.6v-4.8c0-0.7-0.2-1.3-0.5-1.6c-0.3-0.4-0.8-0.5-1.4-0.5
					c-0.7,0-1.2,0.2-1.6,0.6c-0.4,0.4-0.6,1-0.6,1.8v4.5h-2.6V41.4h2.6v4.4c0.3-0.3,0.8-0.6,1.3-0.8c0.5-0.2,1-0.3,1.6-0.3
					C197.4,44.7,198.3,45,199,45.7z"/>
			</g>
		</g>
	</g>
</g>
</svg>
