<?xml version="1.0" encoding="utf-8"?>
<!-- Generator: Adobe Illustrator 21.0.0, SVG Export Plug-In . SVG Version: 6.00 Build 0)  -->
<svg version="1.1" id="Layer_1" xmlns="http://www.w3.org/2000/svg" xmlns:xlink="http://www.w3.org/1999/xlink" x="0px" y="0px"
	 viewBox="0 0 260 78" style="enable-background:new 0 0 260 78;" xml:space="preserve">
<style type="text/css">
	.st0{fill:#BCBCE2;}
	.st1{fill:#D9D16F;}
	.st2{fill:#BF6087;}
	.st3{fill:#40406B;}
	.st4{fill:#FFFFFF;}
</style>
<g>
	<g>
		<g>
			<circle class="st0" cx="38.8" cy="38.7" r="30.4"/>
		</g>
		<g>
			<circle class="st1" cx="38.8" cy="73.5" r="4.1"/>
		</g>
		<g>
			<rect x="37.8" y="53.3" class="st1" width="2" height="18.9"/>
		</g>
		<g>
			<g>
				<g>
					<circle class="st2" cx="38.8" cy="4.1" r="4.1"/>
				</g>
				<g>
					<rect x="37.8" y="5.4" class="st2" width="2" height="18.9"/>
				</g>
				<g>
					<circle class="st2" cx="38.8" cy="4.1" r="4.1"/>
				</g>
				<g>
					<rect x="37.8" y="5.4" class="st2" width="2" height="18.9"/>
				</g>
			</g>
			<g>
				<g>
					<circle class="st2" cx="38.8" cy="73.5" r="4.1"/>
				</g>
				<g>
					<rect x="37.8" y="53.3" class="st2" width="2" height="18.9"/>
				</g>
			</g>
			<g>
				<g>
					<circle class="st2" cx="73.5" cy="38.8" r="4.1"/>
				</g>
				<g>
					<rect x="53.3" y="37.8" class="st2" width="18.9" height="2"/>
				</g>
				<g>
					<circle class="st2" cx="73.5" cy="38.8" r="4.1"/>
				</g>
				<g>
					<rect x="53.3" y="37.8" class="st2" width="18.9" height="2"/>
				</g>
			</g>
			<g>
				<g>
					<circle class="st2" cx="4.1" cy="38.8" r="4.1"/>
				</g>
				<g>
					<rect x="5.4" y="37.8" class="st2" width="18.9" height="2"/>
				</g>
			</g>
			<g>
				<g>
					
						<ellipse transform="matrix(0.7071 -0.7071 0.7071 0.7071 8.4841 48.9005)" class="st2" cx="63.3" cy="14.2" rx="4.1" ry="4.1"/>
				</g>
				<g>
					
						<rect x="46.3" y="20.9" transform="matrix(0.7071 -0.7071 0.7071 0.7071 0.8603 45.8552)" class="st2" width="18.9" height="2"/>
				</g>
				<g>
					
						<ellipse transform="matrix(0.7071 -0.7071 0.7071 0.7071 8.4841 48.9005)" class="st2" cx="63.3" cy="14.2" rx="4.1" ry="4.1"/>
				</g>
				<g>
					
						<rect x="46.3" y="20.9" transform="matrix(0.7071 -0.7071 0.7071 0.7071 0.8603 45.8552)" class="st2" width="18.9" height="2"/>
				</g>
			</g>
			<g>
				<g>
					
						<ellipse transform="matrix(0.7071 -0.7071 0.7071 0.7071 -40.6024 28.5574)" class="st2" cx="14.2" cy="63.3" rx="4.1" ry="4.1"/>
				</g>
				<g>
					
						<rect x="12.4" y="54.7" transform="matrix(0.7071 -0.7071 0.7071 0.7071 -32.9958 31.7612)" class="st2" width="18.9" height="2"/>
				</g>
			</g>
			<g>
				<g>
					
						<ellipse transform="matrix(0.7071 -0.7071 0.7071 0.7071 -26.2308 63.2721)" class="st2" cx="63.3" cy="63.3" rx="4.1" ry="4.1"/>
				</g>
				<g>
					
						<rect x="54.7" y="46.3" transform="matrix(0.7071 -0.7071 0.7071 0.7071 -23.1148 55.7362)" class="st2" width="2" height="18.9"/>
				</g>
				<g>
					
						<ellipse transform="matrix(0.7071 -0.7071 0.7071 0.7071 -26.2308 63.2721)" class="st2" cx="63.3" cy="63.3" rx="4.1" ry="4.1"/>
				</g>
				<g>
					
						<rect x="54.7" y="46.3" transform="matrix(0.7071 -0.7071 0.7071 0.7071 -23.1148 55.7362)" class="st2" width="2" height="18.9"/>
				</g>
			</g>
			<g>
				<g>
					
						<ellipse transform="matrix(0.7071 -0.7071 0.7071 0.7071 -5.8877 14.1856)" class="st2" cx="14.2" cy="14.2" rx="4.1" ry="4.1"/>
				</g>
				<g>
					
						<rect x="20.9" y="12.4" transform="matrix(0.7071 -0.7071 0.7071 0.7071 -9.0207 21.8802)" class="st2" width="2" height="18.9"/>
				</g>
			</g>
		</g>
		<g>
			<circle class="st3" cx="38.8" cy="38.7" r="20"/>
		</g>
		<g>
			<g>
				<path class="st0" d="M34.1,33.4c1,1,1.2,1.4,1,1.6c-0.2,0.2-0.5,0.1-1.6-1c-1-1-1-1.2-0.8-1.4C32.9,32.4,33,32.3,34.1,33.4z"/>
			</g>
			<g>
				<path class="st0" d="M31.9,36.5c1.4,0.4,1.7,0.6,1.7,0.9c-0.1,0.3-0.4,0.3-1.9-0.1c-1.4-0.4-1.4-0.5-1.4-0.8
					C30.5,36.2,30.5,36.1,31.9,36.5z"/>
			</g>
			<g>
				<path class="st0" d="M31.7,40.3c1.4-0.4,1.8-0.4,1.9-0.1c0.1,0.3-0.2,0.5-1.6,0.9c-1.4,0.4-1.5,0.3-1.6,0S30.2,40.7,31.7,40.3z"
					/>
			</g>
			<g>
				<path class="st0" d="M33.3,43.7c1-1,1.4-1.2,1.6-1c0.2,0.2,0.1,0.5-1,1.6c-1,1-1.2,1-1.4,0.8C32.3,44.9,32.3,44.7,33.3,43.7z"/>
			</g>
			<g>
				<path class="st0" d="M36.4,45.8c0.4-1.4,0.6-1.7,0.9-1.7c0.3,0.1,0.3,0.4-0.1,1.9c-0.4,1.4-0.5,1.4-0.8,1.4
					C36.2,47.3,36.1,47.3,36.4,45.8z"/>
			</g>
			<g>
				<path class="st0" d="M40.2,46.1c-0.4-1.4-0.4-1.8-0.1-1.9c0.3-0.1,0.5,0.2,0.9,1.6c0.4,1.4,0.3,1.5,0,1.6
					C40.7,47.5,40.6,47.5,40.2,46.1z"/>
			</g>
			<g>
				<path class="st0" d="M43.6,44.5c-1-1-1.2-1.4-1-1.6c0.2-0.2,0.5-0.1,1.6,1c1,1,1,1.2,0.8,1.4C44.8,45.5,44.7,45.5,43.6,44.5z"/>
			</g>
			<g>
				<path class="st0" d="M45.8,41.3c-1.4-0.4-1.7-0.6-1.7-0.9c0.1-0.3,0.4-0.3,1.9,0.1s1.4,0.5,1.4,0.8
					C47.2,41.6,47.2,41.7,45.8,41.3z"/>
			</g>
			<g>
				<path class="st0" d="M46.1,37.6c-1.4,0.4-1.8,0.4-1.9,0.1c-0.1-0.3,0.2-0.5,1.6-0.9c1.4-0.4,1.5-0.3,1.6,0
					C47.5,37.1,47.5,37.2,46.1,37.6z"/>
			</g>
			<g>
				<path class="st0" d="M44.4,34.1c-1,1-1.4,1.2-1.6,1c-0.2-0.2-0.1-0.5,1-1.6c1-1,1.2-1,1.4-0.8C45.4,33,45.4,33.1,44.4,34.1z"/>
			</g>
			<g>
				<path class="st0" d="M41.3,32c-0.4,1.4-0.6,1.7-0.9,1.7c-0.3-0.1-0.3-0.4,0.1-1.9c0.4-1.4,0.5-1.4,0.8-1.4
					C41.5,30.5,41.7,30.6,41.3,32z"/>
			</g>
			<g>
				<path class="st0" d="M37.5,31.7c0.4,1.4,0.4,1.8,0.1,1.9c-0.3,0.1-0.5-0.2-0.9-1.6c-0.4-1.4-0.3-1.5,0-1.6
					C37,30.3,37.1,30.3,37.5,31.7z"/>
			</g>
		</g>
	</g>
	<g>
		<g>
			<g>
				<path class="st4" d="M95,39.3c-2.3-1.2-4-2.8-5.2-4.9c-1.2-2.1-1.8-4.5-1.8-7.2c0-2.6,0.6-5.1,1.8-7.2c1.2-2.1,3.1-3.7,5.2-4.9
					c2.3-1.2,4.8-1.7,7.5-1.7c2.6,0,4.9,0.5,6.9,1.4s3.7,2.1,4.9,4l-5.7,5.1c-1.7-2-3.5-3.1-5.8-3.1c-1.8,0-3.4,0.6-4.5,1.8
					c-1.1,1.2-1.7,2.8-1.7,4.8s0.6,3.7,1.7,4.8c1.1,1.2,2.6,1.8,4.5,1.8c2.1,0,4.1-1.1,5.8-3.1l5.7,5.1c-1.4,1.7-2.9,3.1-4.9,4
					s-4.3,1.4-6.9,1.4C99.7,41.2,97.1,40.5,95,39.3z"/>
			</g>
			<g>
				<path class="st4" d="M120.9,39.3c-2.3-1.2-4-2.8-5.4-4.9c-1.2-2.1-2-4.5-2-7.1s0.6-5.1,2-7.1c1.2-2.1,3.1-3.7,5.4-4.9
					c2.3-1.2,4.8-1.8,7.7-1.8c2.8,0,5.4,0.6,7.7,1.8c2.3,1.2,4,2.8,5.4,4.9c1.2,2.1,2,4.5,2,7.1s-0.6,5.1-2,7.1
					c-1.2,2.1-3.1,3.7-5.4,4.9s-4.8,1.8-7.7,1.8C125.8,41.2,123.2,40.5,120.9,39.3z M131.7,33.1c0.9-0.6,1.5-1.4,2.1-2.3
					c0.5-0.9,0.8-2.1,0.8-3.5s-0.3-2.5-0.8-3.5c-0.5-0.9-1.2-1.7-2.1-2.3c-0.9-0.6-1.8-0.8-3.1-0.8c-1.1,0-2.1,0.3-3.1,0.8
					c-0.9,0.6-1.5,1.4-2.1,2.3s-0.8,2.1-0.8,3.5s0.3,2.5,0.8,3.5c0.5,0.9,1.2,1.7,2.1,2.3c0.9,0.6,1.8,0.8,3.1,0.8
					C129.7,34,130.7,33.6,131.7,33.1z"/>
			</g>
			<g>
				<path class="st4" d="M156.5,34H154v6.6h-8.9V14.1h12.7c2.5,0,4.6,0.5,6.3,1.2c1.8,0.8,3.2,2,4.1,3.5c0.9,1.5,1.5,3.2,1.5,5.2
					c0,1.8-0.5,3.5-1.2,4.9c-0.9,1.4-2.1,2.5-3.7,3.4l5.5,8.1H161L156.5,34z M160.1,21.8c-0.6-0.6-1.5-0.8-2.8-0.8h-3.2v6.2h3.2
					c1.2,0,2.1-0.3,2.8-0.8c0.6-0.6,0.9-1.2,0.9-2.3C161,23.2,160.7,22.4,160.1,21.8z"/>
			</g>
			<g>
				<path class="st4" d="M178,39.3c-2.3-1.2-4-2.8-5.4-4.9c-1.4-2.1-2-4.5-2-7.1s0.6-5.1,2-7.1c1.2-2.1,3.1-3.7,5.4-4.9
					c2.3-1.2,4.8-1.8,7.7-1.8c2.8,0,5.4,0.6,7.7,1.8c2.3,1.2,4,2.8,5.4,4.9c1.2,2.1,2,4.5,2,7.1s-0.6,5.1-2,7.1
					c-1.2,2.1-3.1,3.7-5.4,4.9c-2.3,1.2-4.8,1.8-7.7,1.8C182.8,41.2,180.2,40.5,178,39.3z M188.6,33.1c0.9-0.6,1.5-1.4,2.1-2.3
					c0.5-0.9,0.8-2.1,0.8-3.5s-0.3-2.5-0.8-3.5c-0.5-0.9-1.2-1.7-2.1-2.3c-0.9-0.6-1.8-0.8-3.1-0.8c-1.1,0-2.1,0.3-3.1,0.8
					c-0.9,0.6-1.5,1.4-2.1,2.3c-0.5,0.9-0.8,2.1-0.8,3.5s0.3,2.5,0.8,3.5c0.5,0.9,1.2,1.7,2.1,2.3c0.9,0.6,1.8,0.8,3.1,0.8
					S187.7,33.6,188.6,33.1z"/>
			</g>
			<g>
				<path class="st4" d="M228.2,14.1v26.4h-7.4l-10-12v12h-8.6V14.1h7.4l10,12v-12C219.6,14.1,228.2,14.1,228.2,14.1z"/>
			</g>
			<g>
				<path class="st4" d="M249.1,36h-10l-1.8,4.6h-9.1l11.5-26.4h8.8L260,40.5h-9.2L249.1,36z M246.6,29.5l-2.6-6.6l-2.6,6.6H246.6z"
					/>
			</g>
		</g>
		<g>
			<g>
				<g>
					<path class="st0" d="M88.4,49.7c-0.3-0.3-0.5-0.6-0.5-1.1s0.2-0.8,0.5-1.1S89,47,89.5,47s0.8,0.2,1.1,0.5
						c0.3,0.3,0.5,0.6,0.5,1.1s-0.2,0.8-0.5,1.1s-0.6,0.5-1.1,0.5C89.1,50,88.7,50,88.4,49.7z M88.4,52.5h2.3v12.7h-2.3V52.5z"/>
				</g>
				<g>
					<path class="st0" d="M104.8,53.8c0.9,0.9,1.4,2.3,1.4,4.1v7.4h-2.3v-7c0-1.2-0.3-2.1-0.9-2.8c-0.6-0.6-1.4-0.9-2.6-0.9
						s-2.3,0.3-2.9,1.1c-0.8,0.8-1.1,1.8-1.1,3.2v6.6h-2.1V52.7h2.1v2c0.5-0.6,1.1-1.2,1.8-1.5c0.8-0.3,1.7-0.5,2.8-0.5
						C102.6,52.3,103.9,52.8,104.8,53.8z"/>
				</g>
			</g>
			<g>
				<g>
					<path class="st0" d="M126.7,57.7c0.6,0.8,0.9,1.7,0.9,2.9c0,1.5-0.6,2.8-1.8,3.7c-1.2,0.9-3.1,1.2-5.4,1.2H111V47.2h8.9
						c2.1,0,4,0.5,5.1,1.2c1.2,0.9,1.8,2,1.8,3.5c0,0.9-0.2,1.7-0.6,2.3c-0.5,0.8-1.1,1.2-1.8,1.7C125.4,56.2,126.3,56.8,126.7,57.7
						z M115.2,50.3v4.3h4.1c1.1,0,1.8-0.2,2.3-0.6c0.5-0.3,0.8-0.9,0.8-1.5c0-0.8-0.3-1.2-0.8-1.5s-1.4-0.5-2.3-0.5h-4.1V50.3z
						 M122.6,61.7c0.6-0.3,0.8-0.9,0.8-1.7c0-1.5-1.1-2.3-3.4-2.3h-4.9v4.5h4.9C121.2,62.2,122.1,62,122.6,61.7z"/>
				</g>
				<g>
					<path class="st0" d="M140.3,52.7c1.2,1.1,1.7,2.6,1.7,4.6v8h-3.8v-1.7c-0.8,1.2-2.1,2-4.3,2c-1.1,0-2-0.2-2.8-0.6
						c-0.8-0.3-1.4-0.9-1.8-1.5c-0.5-0.6-0.6-1.4-0.6-2.1c0-1.2,0.5-2.3,1.5-3.1c0.9-0.8,2.5-1.1,4.6-1.1h3.2c0-0.9-0.3-1.5-0.8-2
						s-1.4-0.8-2.5-0.8c-0.8,0-1.5,0.2-2.1,0.3c-0.8,0.3-1.4,0.6-1.8,0.9l-1.4-2.8c0.8-0.5,1.7-0.9,2.8-1.2s2.1-0.5,3.2-0.5
						C137.3,51.2,139,51.7,140.3,52.7z M136.7,62.3c0.5-0.3,0.9-0.8,1.1-1.4v-1.4H135c-1.7,0-2.5,0.6-2.5,1.7c0,0.5,0.2,0.9,0.6,1.2
						s0.9,0.5,1.7,0.5C135.6,62.8,136.3,62.7,136.7,62.3z"/>
				</g>
				<g>
					<path class="st0" d="M157.3,52.7c1.1,1.1,1.5,2.6,1.5,4.6v8h-4v-7.4c0-1.1-0.3-2-0.8-2.5c-0.5-0.6-1.2-0.8-2.1-0.8
						c-1.1,0-1.8,0.3-2.5,0.9c-0.6,0.6-0.9,1.5-0.9,2.8v7h-4v-14h3.8V53c0.5-0.6,1.2-1.1,2-1.4c0.8-0.3,1.7-0.5,2.6-0.5
						C154.8,51.2,156.2,51.7,157.3,52.7z"/>
				</g>
				<g>
					<path class="st0" d="M176,51.3V63c0,2.6-0.6,4.5-2,5.7s-3.2,1.8-5.8,1.8c-1.4,0-2.6-0.2-3.8-0.5s-2.1-0.8-3.1-1.4l1.5-2.9
						c0.6,0.5,1.4,0.9,2.3,1.2c0.9,0.3,1.8,0.5,2.8,0.5c1.4,0,2.5-0.3,3.1-0.9s1.1-1.5,1.1-2.9V63c-1.1,1.2-2.5,1.7-4.5,1.7
						c-1.2,0-2.5-0.3-3.5-0.8c-1.1-0.6-1.8-1.4-2.5-2.3c-0.6-1.1-0.9-2.1-0.9-3.5s0.3-2.5,0.9-3.5c0.6-1.1,1.5-1.8,2.5-2.3
						c1.1-0.6,2.3-0.8,3.5-0.8c2,0,3.5,0.6,4.6,2v-1.8h3.8L176,51.3L176,51.3z M171,60.3c0.6-0.6,1.1-1.4,1.1-2.5s-0.3-1.8-1.1-2.5
						c-0.6-0.6-1.5-0.9-2.6-0.9s-2,0.3-2.6,0.9c-0.8,0.6-1.1,1.5-1.1,2.5c0,1.1,0.3,1.8,1.1,2.5c0.8,0.6,1.5,0.9,2.6,0.9
						S170.3,61,171,60.3z"/>
				</g>
				<g>
					<path class="st0" d="M178.8,46h4v19.3h-4V46z"/>
				</g>
				<g>
					<path class="st0" d="M196.1,52.7c1.2,1.1,1.7,2.6,1.7,4.6v8H194v-1.7c-0.8,1.2-2.1,2-4.3,2c-1.1,0-2-0.2-2.8-0.6
						c-0.8-0.3-1.4-0.9-1.8-1.5c-0.5-0.6-0.6-1.4-0.6-2.1c0-1.2,0.5-2.3,1.5-3.1c0.9-0.8,2.5-1.1,4.6-1.1h3.2c0-0.9-0.3-1.5-0.8-2
						s-1.4-0.8-2.5-0.8c-0.8,0-1.5,0.2-2.1,0.3c-0.8,0.3-1.4,0.6-1.8,0.9l-1.4-2.8c0.8-0.5,1.7-0.9,2.8-1.2s2.1-0.5,3.2-0.5
						C193.4,51.2,195.1,51.7,196.1,52.7z M192.8,62.3c0.5-0.3,0.9-0.8,1.1-1.4v-1.4h-2.8c-1.7,0-2.5,0.6-2.5,1.7
						c0,0.5,0.2,0.9,0.6,1.2c0.5,0.3,0.9,0.5,1.7,0.5C191.5,62.8,192.1,62.7,192.8,62.3z"/>
				</g>
				<g>
					<path class="st0" d="M214.9,46v19.3H211v-1.5c-1.1,1.2-2.5,1.8-4.3,1.8c-1.4,0-2.5-0.3-3.5-0.9c-1.1-0.6-1.8-1.4-2.5-2.5
						c-0.6-1.1-0.9-2.3-0.9-3.8c0-1.4,0.3-2.8,0.9-3.8c0.6-1.1,1.4-2,2.5-2.5c1.1-0.6,2.3-0.9,3.5-0.9c1.8,0,3.2,0.6,4.1,1.7v-6.7h4
						L214.9,46L214.9,46z M210,61.2c0.6-0.8,1.1-1.7,1.1-2.8s-0.3-2.1-1.1-2.8c-0.6-0.8-1.5-1.1-2.6-1.1s-1.8,0.3-2.6,1.1
						c-0.6,0.8-1.1,1.7-1.1,2.8s0.3,2.1,1.1,2.8c0.6,0.8,1.5,1.1,2.6,1.1S209.2,62,210,61.2z"/>
				</g>
				<g>
					<path class="st0" d="M231.3,59.5h-10.6c0.2,0.9,0.6,1.5,1.4,2c0.8,0.5,1.5,0.8,2.6,0.8c0.8,0,1.4-0.2,2-0.3
						c0.6-0.2,1.1-0.6,1.5-1.1l2.1,2.3c-1.4,1.5-3.2,2.3-5.8,2.3c-1.5,0-2.9-0.3-4.1-0.9c-1.2-0.6-2.1-1.5-2.8-2.6
						c-0.6-1.1-0.9-2.3-0.9-3.7s0.3-2.6,0.9-3.7c0.6-1.1,1.5-2,2.6-2.6s2.5-0.9,3.8-0.9s2.6,0.3,3.7,0.9c1.1,0.6,2,1.4,2.6,2.5
						s0.9,2.3,0.9,3.8C231.3,58.5,231.3,58.8,231.3,59.5z M221.8,55c-0.6,0.5-1.1,1.2-1.1,2.1h6.9c-0.2-0.9-0.5-1.5-1.1-2.1
						c-0.6-0.5-1.4-0.8-2.3-0.8C223.2,54.2,222.4,54.5,221.8,55z"/>
				</g>
				<g>
					<path class="st0" d="M234.2,65.2c-1.1-0.3-2-0.6-2.6-1.1l1.4-2.9c0.6,0.5,1.4,0.8,2.3,0.9c0.9,0.3,1.7,0.3,2.6,0.3
						c1.7,0,2.6-0.5,2.6-1.2c0-0.5-0.3-0.6-0.8-0.9c-0.5-0.2-1.2-0.3-2.1-0.5c-1.1-0.2-2.1-0.3-2.8-0.6c-0.8-0.2-1.4-0.6-2-1.2
						c-0.6-0.6-0.8-1.4-0.8-2.5c0-0.9,0.3-1.7,0.8-2.3s1.2-1.2,2.3-1.5c0.9-0.3,2.1-0.6,3.5-0.6c0.9,0,2,0.2,2.9,0.3
						c0.9,0.2,1.8,0.5,2.5,0.9l-1.4,2.9c-1.2-0.8-2.6-1.1-4-1.1c-0.9,0-1.5,0.2-2,0.3c-0.5,0.3-0.6,0.6-0.6,0.9
						c0,0.5,0.3,0.8,0.8,0.9c0.5,0.2,1.2,0.3,2.3,0.5s2.1,0.5,2.8,0.6c0.8,0.2,1.4,0.6,1.8,1.2c0.5,0.6,0.8,1.4,0.8,2.5
						c0,0.9-0.3,1.7-0.8,2.3s-1.2,1.2-2.3,1.5c-0.9,0.3-2.1,0.6-3.5,0.6C236.5,65.5,235.4,65.4,234.2,65.2z"/>
				</g>
				<g>
					<path class="st0" d="M258.5,52.7c1.1,1.1,1.5,2.6,1.5,4.6v8h-4v-7.4c0-1.1-0.3-2-0.8-2.5c-0.5-0.6-1.2-0.8-2.1-0.8
						c-1.1,0-1.8,0.3-2.5,0.9c-0.6,0.6-0.9,1.5-0.9,2.8v7h-4V46h4v6.8c0.5-0.5,1.2-0.9,2-1.2s1.5-0.5,2.5-0.5
						C256,51.2,257.4,51.7,258.5,52.7z"/>
				</g>
			</g>
		</g>
	</g>
</g>
</svg>
