<?xml version="1.0" encoding="utf-8"?>
<!-- Generator: Adobe Illustrator 21.0.0, SVG Export Plug-In . SVG Version: 6.00 Build 0)  -->
<svg version="1.1" xmlns="http://www.w3.org/2000/svg" xmlns:xlink="http://www.w3.org/1999/xlink" x="0px" y="0px"
	 viewBox="0 0 100 100" style="enable-background:new 0 0 100 100;" xml:space="preserve">
<style type="text/css">
	.st0{clip-path:url(#SVGID_2_);fill:#40406B;}
	.st1{clip-path:url(#SVGID_2_);}
	.st2{fill:#BCBCE2;}
	.st3{fill:#FFD3B6;}
	.st4{fill:#FFB7A0;}
	.st5{fill:#FFC19E;}
	.st6{fill:#222242;}
	.st7{fill:none;stroke:#001825;stroke-width:1.1318;stroke-linecap:round;stroke-linejoin:round;stroke-miterlimit:10;}
	.st8{fill:#001825;}
	.st9{fill:none;stroke:#001825;stroke-width:0.5659;stroke-linecap:round;stroke-linejoin:round;stroke-miterlimit:10;}
	.st10{fill:#FFC49F;}
</style>
<g id="Layer_2">
</g>
<g id="Layer_1">
</g>
<g id="Layer_3">
	<g>
		<defs>
			<circle id="SVGID_1_" cx="50" cy="50" r="50"/>
		</defs>
		<clipPath id="SVGID_2_">
			<use xlink:href="#SVGID_1_"  style="overflow:visible;"/>
		</clipPath>
		<circle class="st0" cx="50" cy="50" r="50"/>
		<g class="st1">
			<path class="st2" d="M6.6,118.3c0.3-5.4,4.6-8.6,6.8-13.2c3.1-6.5-2.4-12,4.7-18.4c7.1-6.3,3.5-9.2,7.7-14.3
				c4.3-5.1,13-3.6,13-3.6h17.8c0,0,8.7-1.5,13,3.6s0.6,8,7.7,14.3c7.1,6.3,1.6,11.8,4.7,18.4c1.3,2.7,3.4,4.8,4.9,7.4
				c7.2,11.7-3.8,26.4-16.4,26.4c0,0-45.7,0-45.8,0c-8.5,2.9-14.6,1.8-13.4-5.7C12.3,127.8,6.3,123.6,6.6,118.3z"/>
			<path class="st3" d="M47.9,59.9l8.6-1.4c0,0,0,11.3,0,19.2c0,7.6-8,9.4-8.6,9.6c0,0,0,0,0,0v0c-0.6-0.1-8.5-1.9-8.5-9.5
				c0-7.9,0-19.2,0-19.2L47.9,59.9z"/>
			<path class="st4" d="M47.9,47.9l-8.6-1.4c0,0,0,11.3,0,19.2c0,3.8,2,6.2,4,7.6c2,1.4,4.4,2,6.9,1.9l0,0c2.2-0.1,5.1-1.1,6-3.1
				c0.6-1.4,0.2-3.6,0.2-6.3c0-7.9,0-19.2,0-19.2L47.9,47.9z"/>
			<g>
				<path class="st5" d="M63.8,43.8c0,0,0.1-1.5,3.1-2.1c3-0.6,4.1,9.7-1.4,10.8C60,53.6,60.7,46,63.8,43.8z"/>
				<path class="st5" d="M35.9,49.4c0,0-0.7-1.4-3.7-0.8c-3,0.6,0,10.5,5.4,9.4C43.1,57,39.6,50.2,35.9,49.4z"/>
				<path class="st3" d="M54.1,69.1L54.1,69.1c8.3-1.7,13.7-9.8,12-18l-2.3-11.4c-1.7-8.3-9.8-13.7-18-12l0,0
					c-8.3,1.7-13.7,9.8-12,18l2.3,11.4C37.7,65.3,45.8,70.7,54.1,69.1z"/>
				<path class="st4" d="M38.2,55.8c-0.9-4.6,5.1-4.3,12.1-5.7s12.5-4,13.4,0.6c0.9,4.6-5.7,1.1-12.8,2.6
					C43.9,54.7,39.1,60.5,38.2,55.8z"/>
				<path class="st6" d="M28.3,45c4-5.4,1.5-5,2.1-10.4c0.6-5.4,6.4-10,6.4-10s-5.6-4.6-1.6-7.9c4-3.4,8-2.5,8-2.5s3.7-6.8,10.7-2.7
					c6,3.5,2.8,8.2,0.4,10.3c2.1,0.8,6.5,2.8,8.5,6.3c2.7,4.7,0.4,5.7,6.1,9.1c5.7,3.5-5.8,9-2.7,13.2c3.1,4.2,1,6.6,1,6.6
					s0.7-3.5-2.5-5c-3.2-1.5-4.4-4-1.6-9.2S46.5,42.6,41.4,32c-0.7,11.7-10,12.3-5.5,16c4.5,3.7,4.4,6.5,2,9.1
					c-2.4,2.6-0.4,5.6-0.4,5.6s-2.9-1.4-1.6-6.5C37.1,51.1,24.3,50.5,28.3,45z"/>
				<g>
					<path class="st7" d="M58,44.5c0,0-2.8,0.9-5.7-0.9"/>
					<path class="st7" d="M41.2,47.9c0,0,2.9-0.3,4.9-3"/>
					
						<ellipse transform="matrix(0.9804 -0.1968 0.1968 0.9804 -9.0343 9.7337)" class="st8" cx="44.5" cy="50.3" rx="1.2" ry="1.2"/>
					<ellipse transform="matrix(0.9805 -0.1967 0.1967 0.9805 -8.3557 11.9429)" class="st8" cx="55.9" cy="48" rx="1.2" ry="1.2"/>
				</g>
				<path class="st8" d="M50.6,58.8c-0.1-0.4-0.1-0.8-0.1-1.2c0-1.5,1.8-1.9,2.4-0.5c0.2,0.4,0.3,0.7,0.4,1.1
					c0.2,0.6,0.2,1.2,0.1,1.6c-0.2,1.2-1.6,1.5-2.3,0.5C50.9,59.9,50.7,59.4,50.6,58.8z"/>
				<path class="st9" d="M49.7,46.9c0,0,4.1,6.3,1.4,6.8"/>
			</g>
			<path class="st10" d="M60.3,94.3L57,75.3c0,0-2.5-1.7-2.3-6.3c0.2-4.6-1.2-6.7-2.5-8.3c-1-1,0.8-2.8,3.9,4.1
				c-1-5.8-3.8-6.7-3.5-7.4c0.4-0.7,3.1,0.2,4.8,5.4c-0.7-5.2-3.9-6.9-3.4-7.7c0.7-1.1,5,2.9,5.1,8.2c0.9-5.3-2.8-7.5-2.2-8.7
				c0.6-1.2,5.1,4.2,4.3,11.7c1.3-2.4-0.4-5.7,0.7-6.1c1.1-0.4,3.2,7.2-0.7,14.3c2.3,6.9,6.9,17.4,6.9,17.4L60.3,94.3z"/>
			<path class="st2" d="M77.1,137.6c0,0,8.8-4.2,5.9-16.2c-2.7-11.5-1.8-30.5-14.1-35.1c-0.9-0.4-2-0.2-2.8,0.4
				c-2.3,1.7-5.1,2.1-6.8,2.2c-1.2,0-2.2,0.8-2.6,1.9c-1.1,2.9-2.7,9.1-0.9,18c2.6,12.8-1.3,27.4,7.8,29.8
				C72.6,141,77.1,137.6,77.1,137.6z"/>
			<path class="st9" d="M40,64.6c0,0,5.7,6.6,14.1,4.5"/>
		</g>
	</g>
</g>
</svg>
