<?xml version="1.0" encoding="utf-8"?>
<!-- Generator: Adobe Illustrator 21.0.0, SVG Export Plug-In . SVG Version: 6.00 Build 0)  -->
<svg version="1.1" id="Layer_1" xmlns="http://www.w3.org/2000/svg" xmlns:xlink="http://www.w3.org/1999/xlink" x="0px" y="0px"
	 viewBox="0 0 60 60" style="enable-background:new 0 0 60 60;" xml:space="preserve">
<style type="text/css">
	.st0{fill:#BCBCE2;}
	.st1{fill:#D9D16F;}
	.st2{fill:#BF6087;}
	.st3{fill:#40406B;}
</style>
<g>
	<g>
		<circle class="st0" cx="30" cy="29.9" r="23.5"/>
	</g>
	<g>
		<circle class="st1" cx="30" cy="56.8" r="3.2"/>
	</g>
	<g>
		<rect x="29.2" y="41.2" class="st1" width="1.5" height="14.6"/>
	</g>
	<g>
		<g>
			<g>
				<circle class="st2" cx="30" cy="3.2" r="3.2"/>
			</g>
			<g>
				<rect x="29.2" y="4.2" class="st2" width="1.5" height="14.6"/>
			</g>
			<g>
				<circle class="st2" cx="30" cy="3.2" r="3.2"/>
			</g>
			<g>
				<rect x="29.2" y="4.2" class="st2" width="1.5" height="14.6"/>
			</g>
		</g>
		<g>
			<g>
				<circle class="st2" cx="30" cy="56.8" r="3.2"/>
			</g>
			<g>
				<rect x="29.2" y="41.2" class="st2" width="1.5" height="14.6"/>
			</g>
		</g>
		<g>
			<g>
				<circle class="st2" cx="56.8" cy="30" r="3.2"/>
			</g>
			<g>
				<rect x="41.2" y="29.2" class="st2" width="14.6" height="1.5"/>
			</g>
			<g>
				<circle class="st2" cx="56.8" cy="30" r="3.2"/>
			</g>
			<g>
				<rect x="41.2" y="29.2" class="st2" width="14.6" height="1.5"/>
			</g>
		</g>
		<g>
			<g>
				<circle class="st2" cx="3.2" cy="30" r="3.2"/>
			</g>
			<g>
				<rect x="4.2" y="29.2" class="st2" width="14.6" height="1.5"/>
			</g>
		</g>
		<g>
			<g>
				<ellipse transform="matrix(0.7071 -0.7071 0.7071 0.7071 6.5489 37.8307)" class="st2" cx="48.9" cy="11" rx="3.2" ry="3.2"/>
			</g>
			<g>
				
					<rect x="35.8" y="16.1" transform="matrix(0.7071 -0.7071 0.7071 0.7071 0.6773 35.4314)" class="st2" width="14.6" height="1.5"/>
			</g>
			<g>
				<ellipse transform="matrix(0.7071 -0.7071 0.7071 0.7071 6.5489 37.8307)" class="st2" cx="48.9" cy="11" rx="3.2" ry="3.2"/>
			</g>
			<g>
				
					<rect x="35.8" y="16.1" transform="matrix(0.7071 -0.7071 0.7071 0.7071 0.6773 35.4314)" class="st2" width="14.6" height="1.5"/>
			</g>
		</g>
		<g>
			<g>
				<ellipse transform="matrix(0.7071 -0.7071 0.7071 0.7071 -31.4147 22.0914)" class="st2" cx="11" cy="49" rx="3.2" ry="3.2"/>
			</g>
			<g>
				
					<rect x="9.6" y="42.3" transform="matrix(0.7071 -0.7071 0.7071 0.7071 -25.5111 24.5681)" class="st2" width="14.6" height="1.5"/>
			</g>
		</g>
		<g>
			<g>
				<ellipse transform="matrix(0.7071 -0.7071 0.7071 0.7071 -20.3026 48.9428)" class="st2" cx="48.9" cy="49" rx="3.2" ry="3.2"/>
			</g>
			<g>
				
					<rect x="42.3" y="35.8" transform="matrix(0.7071 -0.7071 0.7071 0.7071 -17.8485 43.0939)" class="st2" width="1.5" height="14.6"/>
			</g>
			<g>
				<ellipse transform="matrix(0.7071 -0.7071 0.7071 0.7071 -20.3026 48.9428)" class="st2" cx="48.9" cy="49" rx="3.2" ry="3.2"/>
			</g>
			<g>
				
					<rect x="42.3" y="35.8" transform="matrix(0.7071 -0.7071 0.7071 0.7071 -17.8485 43.0939)" class="st2" width="1.5" height="14.6"/>
			</g>
		</g>
		<g>
			<g>
				<ellipse transform="matrix(0.7071 -0.7071 0.7071 0.7071 -4.5633 10.9793)" class="st2" cx="11" cy="11" rx="3.2" ry="3.2"/>
			</g>
			<g>
				
					<rect x="16.1" y="9.6" transform="matrix(0.7071 -0.7071 0.7071 0.7071 -6.9853 16.9055)" class="st2" width="1.5" height="14.6"/>
			</g>
		</g>
	</g>
	<g>
		<circle class="st3" cx="30" cy="29.9" r="15.5"/>
	</g>
	<g>
		<g>
			<path class="st0" d="M26.4,25.8c0.8,0.8,0.9,1.1,0.8,1.2c-0.2,0.2-0.4,0.1-1.2-0.8c-0.8-0.8-0.8-0.9-0.6-1.1
				C25.4,25.1,25.5,25,26.4,25.8z"/>
		</g>
		<g>
			<path class="st0" d="M24.7,28.2c1.1,0.3,1.3,0.5,1.3,0.7c-0.1,0.2-0.3,0.2-1.5-0.1c-1.1-0.3-1.1-0.4-1.1-0.6
				C23.6,28,23.6,27.9,24.7,28.2z"/>
		</g>
		<g>
			<path class="st0" d="M24.5,31.2c1.1-0.3,1.4-0.3,1.5-0.1c0.1,0.2-0.2,0.4-1.2,0.7c-1.1,0.3-1.2,0.2-1.2,0S23.4,31.5,24.5,31.2z"
				/>
		</g>
		<g>
			<path class="st0" d="M25.7,33.8c0.8-0.8,1.1-0.9,1.2-0.8c0.2,0.2,0.1,0.4-0.8,1.2c-0.8,0.8-0.9,0.8-1.1,0.6
				C25,34.7,25,34.6,25.7,33.8z"/>
		</g>
		<g>
			<path class="st0" d="M28.1,35.4c0.3-1.1,0.5-1.3,0.7-1.3c0.2,0.1,0.2,0.3-0.1,1.5c-0.3,1.1-0.4,1.1-0.6,1.1
				C28,36.6,27.9,36.6,28.1,35.4z"/>
		</g>
		<g>
			<path class="st0" d="M31.1,35.6c-0.3-1.1-0.3-1.4-0.1-1.5c0.2-0.1,0.4,0.2,0.7,1.2s0.2,1.2,0,1.2C31.5,36.7,31.4,36.7,31.1,35.6z
				"/>
		</g>
		<g>
			<path class="st0" d="M33.7,34.4c-0.8-0.8-0.9-1.1-0.8-1.2c0.2-0.2,0.4-0.1,1.2,0.8c0.8,0.8,0.8,0.9,0.6,1.1
				C34.6,35.2,34.6,35.2,33.7,34.4z"/>
		</g>
		<g>
			<path class="st0" d="M35.4,31.9c-1.1-0.3-1.3-0.5-1.3-0.7c0.1-0.2,0.3-0.2,1.5,0.1s1.1,0.4,1.1,0.6
				C36.5,32.2,36.5,32.2,35.4,31.9z"/>
		</g>
		<g>
			<path class="st0" d="M35.6,29.1c-1.1,0.3-1.4,0.3-1.5,0.1c-0.1-0.2,0.2-0.4,1.2-0.7c1.1-0.3,1.2-0.2,1.2,0
				C36.7,28.7,36.7,28.8,35.6,29.1z"/>
		</g>
		<g>
			<path class="st0" d="M34.3,26.4c-0.8,0.8-1.1,0.9-1.2,0.8c-0.2-0.2-0.1-0.4,0.8-1.2c0.8-0.8,0.9-0.8,1.1-0.6
				C35.1,25.5,35.1,25.6,34.3,26.4z"/>
		</g>
		<g>
			<path class="st0" d="M31.9,24.7c-0.3,1.1-0.5,1.3-0.7,1.3C31,26,31,25.7,31.3,24.6c0.3-1.1,0.4-1.1,0.6-1.1
				C32.1,23.6,32.2,23.7,31.9,24.7z"/>
		</g>
		<g>
			<path class="st0" d="M29,24.5c0.3,1.1,0.3,1.4,0.1,1.5c-0.2,0.1-0.4-0.2-0.7-1.2c-0.3-1.1-0.2-1.2,0-1.2
				C28.6,23.4,28.7,23.4,29,24.5z"/>
		</g>
	</g>
</g>
</svg>
