<?xml version="1.0" encoding="utf-8"?>
<!-- Generator: Adobe Illustrator 21.0.0, SVG Export Plug-In . SVG Version: 6.00 Build 0)  -->
<svg version="1.1" xmlns="http://www.w3.org/2000/svg" xmlns:xlink="http://www.w3.org/1999/xlink" x="0px" y="0px"
	 viewBox="0 0 100 100" style="enable-background:new 0 0 100 100;" xml:space="preserve">
<style type="text/css">
	.st0{clip-path:url(#SVGID_2_);fill:#40406B;}
	.st1{clip-path:url(#SVGID_2_);}
	.st2{fill:#BCBCE2;}
	.st3{fill:#FFD3B6;}
	.st4{fill:#FFB7A0;}
	.st5{fill:#FFC19E;}
	.st6{fill:url(#SVGID_3_);}
	.st7{fill:#222242;}
	.st8{fill:none;stroke:#001825;stroke-width:1.1318;stroke-linecap:round;stroke-linejoin:round;stroke-miterlimit:10;}
	.st9{fill:none;stroke:#001825;stroke-width:0.5659;stroke-linecap:round;stroke-linejoin:round;stroke-miterlimit:10;}
	.st10{fill:#001825;}
	.st11{fill:#FAEEE9;}
	.st12{fill:#EC4A59;}
	.st13{fill:#DCD8D8;}
	.st14{fill:none;stroke:#001825;stroke-width:0.5105;stroke-linecap:round;stroke-linejoin:round;stroke-miterlimit:10;}
</style>
<g id="Layer_2">
</g>
<g id="Layer_1">
</g>
<g id="Layer_3">
	<g>
		<defs>
			<circle id="SVGID_1_" cx="50" cy="50" r="50"/>
		</defs>
		<clipPath id="SVGID_2_">
			<use xlink:href="#SVGID_1_"  style="overflow:visible;"/>
		</clipPath>
		<circle class="st0" cx="50" cy="50" r="50"/>
		<g class="st1">
			<g>
				<path class="st2" d="M93.5,119.6c-0.3-5.4-4.6-8.6-6.8-13.2c-3.1-6.5,2.4-12-4.7-18.4c-7.1-6.3-3.5-9.2-7.7-14.3
					c-4.3-5.1-13-3.6-13-3.6H43.4c0,0-8.7-1.5-13,3.6c-4.3,5.1-0.6,8-7.7,14.3c-7.1,6.3-1.6,11.8-4.7,18.4c-1.3,2.7-3.4,4.8-4.9,7.4
					c-7.2,11.7,3.8,26.4,16.4,26.4c0,0,45.7,0,45.8,0c5,0,9.9-2.1,13.4-5.7C92.4,130.5,93.8,124.9,93.5,119.6z"/>
				<path class="st3" d="M52.2,61.2l-8.6-1.4c0,0,0,11.3,0,19.2c0,7.6,8,9.4,8.6,9.6c0,0,0,0,0,0v0c0.6-0.1,8.5-1.9,8.5-9.5
					c0-7.9,0-19.2,0-19.2L52.2,61.2z"/>
				<path class="st4" d="M52.2,50.4L43.6,49c0,0,0,11.3,0,19.2c0,1.9,0.5,3.5,1.3,4.8c3.2,5.5,11.4,5.5,14.6,0
					c0.8-1.3,1.3-2.9,1.3-4.8c0-7.9,0-19.2,0-19.2L52.2,50.4z"/>
				<path class="st5" d="M37.8,48.8c0,0-0.4-1.5-3.5-1.5c-3.1,0-2.1,10.3,3.5,10.3C43.4,57.7,41.3,50.3,37.8,48.8z"/>
				<path class="st5" d="M66.2,48.8c0,0,0.4-1.5,3.5-1.5c3.1,0,2.1,10.3-3.5,10.3C60.6,57.7,62.7,50.3,66.2,48.8z"/>
				<linearGradient id="SVGID_3_" gradientUnits="userSpaceOnUse" x1="52.2258" y1="59.0239" x2="52.2258" y2="28.3854">
					<stop  offset="0.2211" style="stop-color:#FFD3B6"/>
					<stop  offset="0.8593" style="stop-color:#ED6C5D"/>
				</linearGradient>
				<path class="st6" d="M52.2,71.7L52.2,71.7c-8.4,0-15.3-6.9-15.3-15.3V44.8c0-8.4,6.9-15.3,15.3-15.3l0,0
					c8.4,0,15.3,6.9,15.3,15.3v11.6C67.5,64.8,60.7,71.7,52.2,71.7z"/>
				<path class="st4" d="M65.3,55.6c0-4.7-5.8-3.2-13-3.2s-13-1.5-13,3.2c0,4.7,5.8,0.5,13,0.5S65.3,60.3,65.3,55.6z"/>
				<path class="st7" d="M72.8,43.1c-5-4.5-2.4-4.6-4.1-9.8c-1.7-5.2-8.2-8.5-8.2-8.5s4.6-5.6,0-8.1c-4.6-2.5-8.3-0.9-8.3-0.9
					s-5-5.9-11-0.5c-5.2,4.7-1.1,8.5,1.6,10.2c-1.9,1.2-5.9,4.1-7.1,7.9c-1.7,5.2,0.8,5.6-4.2,10.2c-5,4.5,7.5,7.7,5.3,12.4
					s0.3,6.6,0.3,6.6s-1.4-3.3,1.5-5.4c2.8-2.1,3.5-4.8-0.2-9.3c-3.7-4.5,16-3.6,19-15c3,11.4,12.2,10.1,8.5,14.6
					c-3.7,4.5-3.1,7.2-0.2,9.3c2.8,2.1,1.5,5.4,1.5,5.4s2.5-1.9,0.3-6.6C65.3,50.7,77.8,47.6,72.8,43.1z"/>
				<g>
					<path class="st8" d="M43.6,48.4c0,0,2.9,0.3,5.4-2"/>
					<path class="st8" d="M60.7,48.4c0,0-2.9,0.3-5.4-2"/>
				</g>
				<path class="st9" d="M52.2,49.1c0,0-2.8,7,0,7"/>
				<circle class="st10" cx="46.3" cy="51.2" r="1.2"/>
				<circle class="st10" cx="58" cy="51.2" r="1.2"/>
				<path class="st9" d="M49.7,59.6c0,0,2.5-0.4,5.1,0.6"/>
				<g>
					<path class="st11" d="M65.1,51.5L65.1,51.5c0.9,0,1.6-0.7,1.6-1.6V32.1c0-0.9-0.7-1.6-1.6-1.6l0,0c-0.9,0-1.6,0.7-1.6,1.6v17.8
						C63.5,50.7,64.2,51.5,65.1,51.5z"/>
					<circle class="st11" cx="65.1" cy="50.2" r="2.7"/>
					<circle class="st12" cx="65.1" cy="50.2" r="1.6"/>
					<g>
						<path class="st13" d="M65.7,32.3c0-0.4-0.3-0.7-0.7-0.7c-0.4,0-0.7,0.3-0.7,0.7v3.4h1.3V32.3z"/>
						<path class="st12" d="M64.4,35.7v14c0,0.4,0.3,0.7,0.7,0.7c0.4,0,0.7-0.3,0.7-0.7v-14H64.4z"/>
					</g>
					<line class="st14" x1="65.3" y1="33.5" x2="66.7" y2="33.5"/>
					<line class="st14" x1="65.3" y1="38.9" x2="66.7" y2="38.9"/>
					<line class="st14" x1="66" y1="34.6" x2="66.7" y2="34.6"/>
					<line class="st14" x1="66" y1="35.7" x2="66.7" y2="35.7"/>
					<line class="st14" x1="66" y1="37.8" x2="66.7" y2="37.8"/>
					<line class="st14" x1="66" y1="36.8" x2="66.7" y2="36.8"/>
					<line class="st14" x1="65.3" y1="44.3" x2="66.7" y2="44.3"/>
					<line class="st14" x1="66" y1="40" x2="66.7" y2="40"/>
					<line class="st14" x1="66" y1="41.1" x2="66.7" y2="41.1"/>
					<line class="st14" x1="66" y1="43.2" x2="66.7" y2="43.2"/>
					<line class="st14" x1="66" y1="42.1" x2="66.7" y2="42.1"/>
				</g>
				<path class="st9" d="M59.9,69.6c0,0-7.6,4.4-15.2,0.1"/>
			</g>
		</g>
	</g>
</g>
</svg>
