<?xml version="1.0" encoding="utf-8"?>
<!-- Generator: Adobe Illustrator 21.0.0, SVG Export Plug-In . SVG Version: 6.00 Build 0)  -->
<svg version="1.1" id="Capa_1" xmlns="http://www.w3.org/2000/svg" xmlns:xlink="http://www.w3.org/1999/xlink" x="0px" y="0px"
	 viewBox="0 0 512 512" style="enable-background:new 0 0 512 512;" xml:space="preserve">
<style type="text/css">
	.st0{fill:#D9D16F;}
</style>
<g>
	<g>
		<path class="st0" d="M419,498.8l-25.1-74c-1.4-4.1-5.2-6.8-9.5-6.8H383V273c0-70-57-127-127-127s-127,57-127,127v145h-1.5
			c-4.3,0-8.1,2.7-9.5,6.8l-25.1,74c-1,3.1-0.5,6.4,1.3,9c1.9,2.6,4.9,4.2,8.1,4.2h307.1c3.2,0,6.2-1.6,8.1-4.2
			C419.5,505.2,420,501.8,419,498.8z M149,273c0-59,48-107,107-107s107,48,107,107v145H149V273z M116.4,492l18.3-54h242.6l18.3,54
			L116.4,492L116.4,492z"/>
	</g>
</g>
<g>
	<g>
		<path class="st0" d="M256,0c-5.5,0-10,4.5-10,10v60c0,5.5,4.5,10,10,10c5.5,0,10-4.5,10-10V10C266,4.5,261.5,0,256,0z"/>
	</g>
</g>
<g>
	<g>
		<path class="st0" d="M263.1,101.9c-1.9-1.9-4.4-2.9-7.1-2.9s-5.2,1.1-7.1,2.9c-1.9,1.9-2.9,4.4-2.9,7.1c0,2.6,1.1,5.2,2.9,7.1
			c1.9,1.9,4.4,2.9,7.1,2.9s5.2-1.1,7.1-2.9c1.9-1.9,2.9-4.4,2.9-7.1C266,106.3,264.9,103.8,263.1,101.9z"/>
	</g>
</g>
<g>
	<g>
		<path class="st0" d="M95.5,267.7H49.6c-5.5,0-10,4.5-10,10s4.5,10,10,10h45.9c5.5,0,10-4.5,10-10S101,267.7,95.5,267.7z"/>
	</g>
</g>
<g>
	<g>
		<path class="st0" d="M17.1,270.6c-1.9-1.9-4.4-2.9-7.1-2.9s-5.2,1.1-7.1,2.9S0,275,0,277.7s1.1,5.2,2.9,7.1
			c1.9,1.9,4.4,2.9,7.1,2.9s5.2-1.1,7.1-2.9c1.9-1.9,2.9-4.4,2.9-7.1S18.9,272.5,17.1,270.6z"/>
	</g>
</g>
<g>
	<g>
		<path class="st0" d="M188.7,89l-13.6-32.7c-2.1-5.1-8-7.5-13.1-5.4c-5.1,2.1-7.5,8-5.4,13.1l13.6,32.7c1.6,3.9,5.3,6.2,9.2,6.2
			c1.3,0,2.6-0.2,3.8-0.8C188.4,99.9,190.8,94.1,188.7,89z"/>
	</g>
</g>
<g>
	<g>
		<path class="st0" d="M75,191.9l-32.7-13.6c-5.1-2.1-11,0.3-13.1,5.4c-2.1,5.1,0.3,11,5.4,13.1l32.7,13.6c1.3,0.5,2.5,0.8,3.8,0.8
			c3.9,0,7.6-2.3,9.2-6.2C82.5,199.8,80.1,194,75,191.9z"/>
	</g>
</g>
<g>
	<g>
		<path class="st0" d="M466.6,267.7h-45.9c-5.5,0-10,4.5-10,10s4.5,10,10,10h45.9c5.5,0,10-4.5,10-10S472.1,267.7,466.6,267.7z"/>
	</g>
</g>
<g>
	<g>
		<path class="st0" d="M509.1,270.6c-1.9-1.9-4.4-2.9-7.1-2.9s-5.2,1.1-7.1,2.9s-2.9,4.4-2.9,7.1s1.1,5.2,2.9,7.1
			c1.9,1.9,4.4,2.9,7.1,2.9s5.2-1.1,7.1-2.9c1.9-1.9,2.9-4.4,2.9-7.1S510.9,272.5,509.1,270.6z"/>
	</g>
</g>
<g>
	<g>
		<path class="st0" d="M453.7,79.9c-3.9-3.9-10.2-3.9-14.1,0l-49.2,49.2c-3.9,3.9-3.9,10.2,0,14.1c2,2,4.5,2.9,7.1,2.9
			c2.6,0,5.1-1,7.1-2.9l49.2-49.2C457.7,90.1,457.7,83.8,453.7,79.9z"/>
	</g>
</g>
<g>
	<g>
		<path class="st0" d="M121.6,129.1L72.4,79.9c-3.9-3.9-10.2-3.9-14.1,0c-3.9,3.9-3.9,10.2,0,14.1l49.2,49.2c2,2,4.5,2.9,7.1,2.9
			s5.1-1,7.1-2.9C125.5,139.4,125.5,133,121.6,129.1z"/>
	</g>
</g>
<g>
	<g>
		<path class="st0" d="M349.9,50.9c-5.1-2.1-11,0.3-13.1,5.4L323.3,89c-2.1,5.1,0.3,11,5.4,13.1c1.3,0.5,2.5,0.8,3.8,0.8
			c3.9,0,7.6-2.3,9.2-6.2l13.6-32.7C357.5,58.8,355,53,349.9,50.9z"/>
	</g>
</g>
<g>
	<g>
		<path class="st0" d="M482.8,183.7c-2.1-5.1-8-7.5-13.1-5.4L437,191.9c-5.1,2.1-7.5,8-5.4,13.1c1.6,3.9,5.3,6.2,9.2,6.2
			c1.3,0,2.6-0.2,3.8-0.8l32.7-13.6C482.5,194.7,484.9,188.8,482.8,183.7z"/>
	</g>
</g>
<g>
	<g>
		<path class="st0" d="M256,209c-16.5,0-30,13.5-30,30v48c0,16.5,13.5,30,30,30s30-13.5,30-30v-48C286,222.5,272.5,209,256,209z
			 M266,287c0,5.5-4.5,10-10,10s-10-4.5-10-10v-48c0-5.5,4.5-10,10-10s10,4.5,10,10V287z"/>
	</g>
</g>
<g>
	<g>
		<path class="st0" d="M256,337c-16.5,0-30,13.5-30,30c0,16.5,13.5,30,30,30s30-13.5,30-30C286,350.5,272.5,337,256,337z M256,377
			c-5.5,0-10-4.5-10-10s4.5-10,10-10s10,4.5,10,10S261.5,377,256,377z"/>
	</g>
</g>
</svg>
