<?xml version="1.0" encoding="utf-8"?>
<!-- Generator: Adobe Illustrator 21.0.0, SVG Export Plug-In . SVG Version: 6.00 Build 0)  -->
<svg version="1.1" id="Capa_1" xmlns="http://www.w3.org/2000/svg" xmlns:xlink="http://www.w3.org/1999/xlink" x="0px" y="0px"
	 viewBox="0 0 512 512" style="enable-background:new 0 0 512 512;" xml:space="preserve">
<style type="text/css">
	.st0{fill:#D9D16F;}
</style>
<g id="XMLID_2306_">
	<g id="XMLID_1088_">
		<path id="XMLID_1117_" class="st0" d="M317.5,306.1H335c26.6,0,48.3-21.7,48.3-48.3s-21.7-48.3-48.3-48.3h-17.5
			c-26.6,0-48.3,21.7-48.3,48.3S290.8,306.1,317.5,306.1z M317.5,229.5H335c15.6,0,28.3,12.7,28.3,28.3s-12.7,28.3-28.3,28.3h-17.5
			c-15.6,0-28.3-12.7-28.3-28.3S301.8,229.5,317.5,229.5L317.5,229.5z"/>
		<path id="XMLID_1125_" class="st0" d="M177.6,209.5c-26.6,0-48.3,21.7-48.3,48.3s21.7,48.3,48.3,48.3h17.5
			c26.6,0,48.3-21.7,48.3-48.3s-21.7-48.3-48.3-48.3L177.6,209.5z M223.5,257.8c0,15.6-12.7,28.3-28.3,28.3h-17.5
			c-15.6,0-28.3-12.7-28.3-28.3s12.7-28.3,28.3-28.3h17.5C210.8,229.5,223.5,242.2,223.5,257.8z"/>
		<path id="XMLID_1128_" class="st0" d="M256.3,315c-13.8,0-25.7,9.4-28.9,22.9l-3.7,15.6c-1.7,7.3-0.1,14.9,4.6,20.7
			c4.7,5.9,11.6,9.3,19.1,9.3h17.8c7.5,0,14.5-3.4,19.1-9.3c4.7-5.9,6.3-13.4,4.6-20.7l-3.7-15.6C282,324.4,270.1,315,256.3,315
			L256.3,315z M268.7,361.8c-0.5,0.6-1.6,1.7-3.4,1.7h-17.8c-1.8,0-2.9-1-3.4-1.7c-0.5-0.6-1.3-1.9-0.8-3.7l3.7-15.6
			c1-4.4,4.9-7.5,9.5-7.5c4.5,0,8.4,3.1,9.5,7.5l3.7,15.6C269.9,359.9,269.2,361.2,268.7,361.8L268.7,361.8z"/>
		<path id="XMLID_1133_" class="st0" d="M438.6,387.1l-21.9-21.9c16.1-14,26.3-34.5,26.3-57.4c0-15.3-4.4-29.8-12.9-42.4
			c7.9-39.6,2.1-80-16.3-115.6l24.9-24.9c7.6,5,16.5,7.6,25.9,7.6c12.7,0,24.7-5,33.7-13.9c18.6-18.6,18.6-48.8,0-67.3
			c-6.7-6.7-15.1-11.2-24.1-13c-1.8-9.1-6.3-17.5-13-24.2c-9-9-20.9-13.9-33.7-13.9c-12.7,0-24.7,5-33.7,13.9
			c-9,9-13.9,20.9-13.9,33.7c0,9.3,2.7,18.2,7.6,25.9l-19.6,19.6C349,78.2,327.4,67,303.9,60.5c-5.3-1.5-10.8,1.7-12.3,7
			c-1.5,5.3,1.7,10.8,7,12.3c80.7,22.2,129.5,103.8,111.1,185.7c-0.6,2.9,0,5.9,1.8,8.3c7.5,9.9,11.5,21.6,11.5,34.1
			c0,31-25.2,56.1-56.1,56.1h-11.9c-5.5,0-10,4.5-10,10v49.3c0,8.1-6.6,14.7-14.7,14.7c-8.1,0-14.7-6.6-14.7-14.7
			c0-5.5-4.5-10-10-10c-5.5,0-10,4.5-10,10c0,8.1-6.6,14.7-14.7,14.7c-8.1,0-14.7-6.6-14.7-14.7c0-5.5-4.5-10-10-10
			c-5.5,0-10,4.5-10,10c0,8.1-6.6,14.7-14.7,14.7c-8.1,0-14.7-6.6-14.7-14.7c0-5.5-4.5-10-10-10s-10,4.5-10,10
			c0,8.1-6.6,14.7-14.7,14.7c-8.1,0-14.7-6.6-14.7-14.7v-49.3c0-5.5-4.5-10-10-10h-11.2c-31,0-56.1-25.2-56.1-56.1
			c0-12.2,3.8-23.8,11.1-33.5c1.7-2.4,2.4-5.3,1.7-8.2c-18.9-82.5,30.1-164.4,111.5-186.5c5.3-1.4,8.5-6.9,7-12.3
			c-1.4-5.3-6.9-8.5-12.3-7c-24,6.5-45.9,17.9-64.8,33.2l-19.9-19.9c5-7.6,7.6-16.5,7.6-25.9c0-12.7-5-24.7-13.9-33.7
			c-9-9-20.9-13.9-33.7-13.9C72,0.2,60,5.2,51.1,14.1c-6.7,6.7-11.2,15.1-13,24.1c-9.1,1.8-17.5,6.3-24.1,13
			c-18.6,18.6-18.6,48.8,0,67.3c16.1,16.1,41.1,18.2,59.5,6.3l25.3,25.3c-18.4,35.7-24.1,76.3-16,116c-8.1,12.4-12.4,26.7-12.4,41.6
			c0,22.6,9.9,42.9,25.6,56.8l-22.5,22.5c-18.4-11.9-43.4-9.8-59.5,6.3c-18.6,18.6-18.6,48.8,0,67.3c6.7,6.7,15.1,11.2,24.1,13
			c1.8,9.1,6.3,17.5,13,24.2c9,9,20.9,13.9,33.7,13.9c12.7,0,24.7-5,33.7-13.9c16.1-16.1,18.2-41.1,6.3-59.5l23-23v7.9
			c0,19.1,15.5,34.6,34.6,34.6c9.6,0,18.4-4,24.6-10.3c6.3,6.4,15,10.3,24.6,10.3c9.6,0,18.4-4,24.6-10.3c6.3,6.4,15,10.3,24.6,10.3
			c9.6,0,18.4-4,24.6-10.3c6.3,6.4,15,10.3,24.6,10.3c19.1,0,34.6-15.5,34.6-34.6v-7.3l22.4,22.4c-11.9,18.4-9.8,43.4,6.3,59.5
			c9,9,20.9,13.9,33.7,13.9c12.7,0,24.7-5,33.7-13.9c6.7-6.7,11.1-15.1,13-24.1c9.1-1.8,17.5-6.3,24.1-13
			c18.6-18.6,18.6-48.8,0-67.3C481.9,377.3,457,375.2,438.6,387.1L438.6,387.1z M407.8,81.5c3.9-3.9,3.9-10.2,0-14.1
			c-5.2-5.2-8.1-12.2-8.1-19.5s2.9-14.3,8.1-19.5c5.2-5.2,12.2-8.1,19.5-8.1c7.4,0,14.3,2.9,19.5,8.1c5.1,5.1,8,11.9,8.1,19.2
			c0.1,5.4,4.4,9.8,9.9,9.9c7.3,0.1,14.1,3,19.2,8.1c10.8,10.8,10.8,28.3,0,39.1c-10.8,10.8-28.3,10.8-39.1,0
			c-3.9-3.9-10.2-3.9-14.1,0l-27.6,27.6c-6.2-9.1-13.1-17.6-20.7-25.3L407.8,81.5z M67.1,104.5c-5.2,5.2-12.2,8.1-19.5,8.1
			c-7.4,0-14.3-2.9-19.5-8.1c-10.8-10.8-10.8-28.3,0-39.1c5.1-5.1,11.9-8,19.2-8.1c5.4-0.1,9.8-4.4,9.9-9.9c0.1-7.3,3-14.1,8.1-19.2
			c5.2-5.2,12.2-8.1,19.5-8.1c7.4,0,14.3,2.9,19.5,8.1c10.8,10.8,10.8,28.3,0,39.1c-3.9,3.9-3.9,10.2,0,14.1l25.6,25.6
			c-7.6,7.7-14.5,16.2-20.6,25.4l-28-28C77.3,100.6,71,100.6,67.1,104.5z M104.2,430.5c-3.9,3.9-3.9,10.2,0,14.1
			c5.2,5.2,8.1,12.2,8.1,19.5c0,7.4-2.9,14.3-8.1,19.5c-5.2,5.2-12.2,8.1-19.5,8.1c-7.4,0-14.3-2.9-19.5-8.1
			c-5.1-5.1-8-11.9-8.1-19.2c-0.1-5.4-4.4-9.8-9.9-9.9c-7.3-0.1-14.1-3-19.2-8.1c-10.8-10.8-10.8-28.3,0-39.1
			c5.2-5.2,12.2-8.1,19.5-8.1c7.4,0,14.3,2.9,19.5,8.1c3.9,3.9,10.2,3.9,14.1,0l31.5-31.5c10.2,5,21.6,7.9,33.7,7.9h1.2v3.2
			L104.2,430.5z M483.9,446.6c-5.1,5.1-11.9,8-19.2,8.1c-5.4,0.1-9.8,4.4-9.9,9.9c-0.1,7.3-3,14.1-8.1,19.2
			c-5.2,5.2-12.2,8.1-19.5,8.1c-7.4,0-14.3-2.9-19.5-8.1c-5.2-5.2-8.1-12.2-8.1-19.5c0-7.4,2.9-14.3,8.1-19.5
			c3.9-3.9,3.9-10.2,0-14.1l-42.9-42.9v-3.8h1.9c11.8,0,22.9-2.7,32.8-7.5l31.1,31.1c3.9,3.9,10.2,3.9,14.1,0
			c10.8-10.8,28.3-10.8,39.1,0S494.7,435.8,483.9,446.6L483.9,446.6z"/>
		<path id="XMLID_1143_" class="st0" d="M256.6,74.1c2.6,0,5.2-1.1,7.1-2.9c1.9-1.9,2.9-4.4,2.9-7.1c0-2.6-1.1-5.2-2.9-7.1
			c-1.9-1.9-4.4-2.9-7.1-2.9c-2.6,0-5.2,1.1-7.1,2.9c-1.9,1.9-2.9,4.4-2.9,7.1c0,2.6,1.1,5.2,2.9,7.1
			C251.4,73.1,254,74.1,256.6,74.1z"/>
	</g>
</g>
</svg>
