<?xml version="1.0" encoding="utf-8"?>
<!-- Generator: Adobe Illustrator 21.0.0, SVG Export Plug-In . SVG Version: 6.00 Build 0)  -->
<svg version="1.1" id="Layer_2_copy" xmlns="http://www.w3.org/2000/svg" xmlns:xlink="http://www.w3.org/1999/xlink" x="0px"
	 y="0px" viewBox="0 0 512 512" style="enable-background:new 0 0 512 512;" xml:space="preserve">
<style type="text/css">
	.st0{fill:#D9D16F;}
</style>
<title>4. China, map</title>
<path class="st0" d="M307.5,186.6l63.7-27.3c4.1-1.7,5.9-6.4,4.2-10.5c-0.6-1.3-1.4-2.4-2.6-3.2L346.7,126l33.8-54h30.6l21.8,43.6
	c0.9,1.8,2.5,3.2,4.3,3.9l55.7,20.9l-12,24c-0.6,1.1-0.9,2.3-0.9,3.6v26L410.3,215l-12.6-12.6c-3.1-3.1-8.2-3.1-11.3,0l-32,32
	c-2.4,2.4-3,6.2-1.5,9.2l16,32c0.8,1.5,2,2.8,3.6,3.6l11.6,5.8v40L316.4,400h-18l-22-14.7c-2.4-1.6-5.4-1.8-8-0.5l-42,21l-15.8-21.1
	l11.1-11.1c2.8-2.8,3.1-7.3,0.7-10.5l-24-32c-2.3-3.1-6.5-4.1-10-2.4L158.1,344h-36.4l-22.8-10.1c-4-1.9-8.8-0.2-10.7,3.8
	c-1.9,4-0.2,8.8,3.8,10.7c0.1,0.1,0.3,0.1,0.4,0.2l24.3,10.8c1,0.5,2.1,0.7,3.2,0.7h40c1.2,0,2.5-0.3,3.6-0.8l26-13l15.8,21.1
	l-11.1,11.1c-2.8,2.8-3.1,7.3-0.7,10.4l24,32c2.3,3.1,6.5,4.1,10,2.4l43.8-21.9l20.1,13.4c1.3,0.9,2.9,1.4,4.4,1.4h24
	c2.3,0,4.4-1,5.9-2.6l72-80c1.3-1.5,2.1-3.4,2.1-5.4v-48c0-3-1.7-5.8-4.4-7.2L382,266l-12.2-24.4l22.3-22.3l10.3,10.3
	c2.1,2.1,5.1,2.9,8,2l80-24c3.4-1,5.7-4.1,5.7-7.7v-30.1l15.2-30.3c2-4,0.4-8.8-3.6-10.7c-0.3-0.1-0.5-0.2-0.8-0.3l-61.1-22.9
	l-22.6-45.2c-1.4-2.7-4.1-4.4-7.2-4.4h-40c-2.8,0-5.3,1.4-6.8,3.8l-40,64c-2.2,3.5-1.3,8.1,2,10.6l20.9,15.7l-50.9,21.8
	c-4.1,1.6-6.1,6.3-4.5,10.4s6.3,6.1,10.4,4.5C307.2,186.7,307.4,186.7,307.5,186.6L307.5,186.6z"/>
<path class="st0" d="M40,298.9V320c0,3.2,1.9,6,4.8,7.3l15.7,7c1,0.5,2.1,0.7,3.2,0.7c4.4,0,8-3.6,8-8c0-3.2-1.9-6-4.8-7.3l-11-4.9
	V296c0-1.9-0.7-3.7-1.8-5.1L16,245.1v-23.3l42.5-14.2c3.3-1.1,5.5-4.1,5.5-7.6v-30.9L78,120h16.7l41.3,13.8V168c0,4.4,3.6,8,8,8
	h19.7l13.6,20.4c1.3,2,3.4,3.3,5.8,3.5l72,8c1.4,0.2,2.7,0,4-0.6l17.1-7.4c4.1-1.7,5.9-6.4,4.2-10.5s-6.4-5.9-10.5-4.2l0,0
	l-15.1,6.5l-66.2-7.4l-13.9-20.9c-1.5-2.2-4-3.5-6.7-3.5h-16v-32c0-3.4-2.2-6.5-5.5-7.6l-48-16c-0.8-0.3-1.7-0.4-2.5-0.4H72
	c-3.6,0-6.7,2.4-7.7,5.8l-16,56c-0.2,0.7-0.3,1.5-0.3,2.2v26.2L5.5,208.4C2.2,209.5,0,212.6,0,216v32c0,1.9,0.7,3.7,1.8,5.1
	L40,298.9z"/>
<path class="st0" d="M288.1,440c-4.4,0-8,3.6-8,8s3.6,8,8,8h15.8c4.4,0,8-3.6,8-8s-3.6-8-8-8H288.1z"/>
<path class="st0" d="M392,376c-4.4,0-8,3.6-8,8s3.6,8,8,8h16c4.4,0,8-3.6,8-8s-3.6-8-8-8H392z"/>
<path class="st0" d="M272,312c0,4.4,3.6,8,8,8h7c4.4,0,8-3.6,8-8s-3.6-8-8-8h-7C275.6,304,272,307.6,272,312z"/>
<path class="st0" d="M319.5,320c4.4,0,8-3.6,8-8s-3.6-8-8-8H312c-4.4,0-8,3.6-8,8s3.6,8,8,8H319.5z"/>
</svg>
