<?xml version="1.0" encoding="utf-8"?>
<!-- Generator: Adobe Illustrator 21.0.0, SVG Export Plug-In . SVG Version: 6.00 Build 0)  -->
<svg version="1.1" id="Layer_1" xmlns="http://www.w3.org/2000/svg" xmlns:xlink="http://www.w3.org/1999/xlink" x="0px" y="0px"
	 viewBox="0 0 100 100" style="enable-background:new 0 0 100 100;" xml:space="preserve">
<style type="text/css">
	.st0{fill:#FFFFFF;}
	.st1{fill:#8B9DEB;}
	.st2{fill:#323C66;}
	.st3{fill:#5161A9;}
	.st4{fill:#EB7B55;}
</style>
<g>
	<path class="st0" d="M78,100H22C9.8,100,0,90.2,0,78V22C0,9.8,9.8,0,22,0h56c12.2,0,22,9.8,22,22v56C100,90.2,90.2,100,78,100z"/>
	<g>
		<g>
			<path class="st1" d="M49.4,60.9h-8.6c-9.6,0-17.4-7.3-17.4-16.2V30.6c0-8.9,7.8-16.2,17.4-16.2v5.1c-6.8,0-12.3,5-12.3,11.1v14.1
				c0,6.1,5.5,11.1,12.3,11.1h8.6V60.9z"/>
			<path class="st1" d="M67.5,87.5h-9.6c-5.9,0-10.3-5.1-10.3-11.9V69l-10,0c0,0,0,0-0.1,0c-0.5,0-2.2,0.1-3.5,1.3
				c-1.4,1.3-2.1,3.5-2.1,6.6h-5.1c0-4.6,1.3-8.1,3.8-10.4c3-2.7,6.5-2.6,7.4-2.6h9.6v-0.8h5.1v0.8h16.6c3.6,0,6.4,1.8,7.9,5.2
				c1,2.2,1.1,4.4,1.2,4.7l0,0.1v1.7C78.3,82.2,73.5,87.5,67.5,87.5z M52.7,69v6.6c0,3.9,2.2,6.8,5.2,6.8h9.6c3.2,0,5.7-3.1,5.7-6.8
				v-1.7c0-0.2-0.1-1.5-0.7-2.8c-0.7-1.5-1.7-2.1-3.2-2.1H52.7z"/>
			<circle class="st2" cx="29.4" cy="80" r="8.5"/>
			<circle class="st3" cx="29.4" cy="80" r="4.2"/>
			<path class="st4" d="M37.9,23.5L37.9,23.5c-1.7,0-3.1-1.4-3.1-3.1v-5.9c0-1.7,1.4-3.1,3.1-3.1l0,0c1.7,0,3.1,1.4,3.1,3.1v5.9
				C40.9,22.1,39.6,23.5,37.9,23.5z"/>
			<path class="st1" d="M58,60.9h-8.6v-5.1H58c6.8,0,12.3-5,12.3-11.1V30.6c0-6.1-5.5-11.1-12.3-11.1v-5.1c9.6,0,17.4,7.3,17.4,16.2
				v14.1C75.4,53.6,67.6,60.9,58,60.9z"/>
			<path class="st4" d="M61,23.5L61,23.5c-1.7,0-3.1-1.4-3.1-3.1v-5.9c0-1.7,1.4-3.1,3.1-3.1l0,0c1.7,0,3.1,1.4,3.1,3.1v5.9
				C64,22.1,62.6,23.5,61,23.5z"/>
			<rect x="40.6" y="55.4" class="st4" width="19.1" height="5.8"/>
			<rect x="47.3" y="60.3" class="st4" width="5.8" height="8.3"/>
		</g>
	</g>
</g>
</svg>
