<?xml version="1.0" encoding="utf-8"?>
<!-- Generator: Adobe Illustrator 21.0.0, SVG Export Plug-In . SVG Version: 6.00 Build 0)  -->
<svg version="1.1" id="Layer_1" xmlns="http://www.w3.org/2000/svg" xmlns:xlink="http://www.w3.org/1999/xlink" x="0px" y="0px"
	 viewBox="0 0 100 100" style="enable-background:new 0 0 100 100;" xml:space="preserve">
<style type="text/css">
	.st0{fill:#FFFFFF;}
	.st1{fill:#6078DC;}
	.st2{fill:#5669B6;}
	.st3{fill:#323C66;}
	.st4{fill:#7789DC;}
	.st5{fill:#8B9DEB;}
	.st6{opacity:0.15;fill:#5060A8;}
</style>
<g>
	<path class="st0" d="M84,100H16c-8.8,0-16-7.2-16-16V16C0,7.2,7.2,0,16,0h68c8.8,0,16,7.2,16,16v68C100,92.8,92.8,100,84,100z"/>
	<g>
		<path class="st1" d="M51.1,72.1c7.8,0.3,8.6-5.8,8.6-8.6c-2.5-0.8-5.2-1.2-8.3-1.2c-3,0-5.8,0.4-8.2,1.2
			C42.8,66,43.3,71.8,51.1,72.1z"/>
		<path class="st2" d="M59.6,63.5c0,2.7-0.8,8.9-8.6,8.6c-7.8-0.3-8.2-6.1-8-8.7c-17.8,5.3-22.2,27-22.2,27h58.4
			C79.2,90.5,76.8,69,59.6,63.5z"/>
		<path class="st3" d="M35,23.6c0,0-5.7,5.8,0,11.7c5.7,5.9,33.4-0.3,33.4-0.3s4.1-8.1-2.5-13.8c-6.6-5.7-22.1-4-22.2-4
			S35,23.6,35,23.6z"/>
		<circle class="st4" cx="33.3" cy="37.4" r="4.6"/>
		<circle class="st4" cx="67.4" cy="37.4" r="4.6"/>
		<path class="st4" d="M56.3,54.1l-0.8-10.2l-8,1.1l-1.3,14.9C48.9,59.6,53.1,58.4,56.3,54.1z"/>
		<path class="st5" d="M34.6,33.1c-0.1,2.4,0,3.2,0.2,5.6c0.5,4.8,2.8,9,7.2,11.3c4.4,2.3,10.4,3.2,15,1.2c3.6-1.5,6.4-4.1,7.8-7.7
			c1.6-4.1,1.6-9.3,1.4-13.7c-0.8-16.3-14.1-16-14.1-16S34.5,12.5,34.6,33.1z"/>
		<path class="st5" d="M46.2,59.9l-0.6,6.6c0,0,0.2,3.3,5.5,3.9c5.3,0.6,5.9-4.9,5.9-4.9l-0.9-11.3C53.1,58.4,48.9,59.6,46.2,59.9z"
			/>
		<ellipse class="st3" cx="43.2" cy="36.3" rx="0.8" ry="1.6"/>
		<ellipse class="st3" cx="58.3" cy="36.6" rx="0.8" ry="1.6"/>
		<circle class="st6" cx="42.4" cy="40.7" r="1.7"/>
		<circle class="st6" cx="58.3" cy="41.3" r="1.7"/>
		<path class="st3" d="M40.8,26.8c-0.7,1.2-1.8,2-3.1,2.3c-1.8,0.4-4.2,0.5-5.2-2c-1.6-4.2,0.8-7.3,0.8-7.3s-5.6-4.5-1.4-8.1
			s6.9,0.6,6.9,0.6s0.5-3.8,4.4-4.1c3.9-0.3,5.2,3.5,5.2,3.5s2.2-3.7,6.7-2.8c4.5,0.9,3.7,5.5,3.7,5.5s1.5-1.1,3.8-0.6
			c3.8,0.8,5.6,5.1,4.8,9.4c-0.5,2.9,0.1,5.5,0.6,6.9c0.3,1-0.2,1.7-0.6,1.7c-1-0.2-1.2-10.1-5-9.8c-0.2,2.2-1.2,5.8-4.2,4.9
			c-0.7-0.2-1.3-0.7-1.8-1.3c-0.8-0.9-1.1-2.1-2-3c-0.6-0.6-1.2-1.1-1.9-1.4c-1.7-0.8-3.7-0.7-5.4,0C44,22.7,42,24.8,40.8,26.8z"/>
	</g>
</g>
</svg>
