<?xml version="1.0" encoding="utf-8"?>
<!-- Generator: Adobe Illustrator 21.0.0, SVG Export Plug-In . SVG Version: 6.00 Build 0)  -->
<svg version="1.1" id="Layer_1" xmlns="http://www.w3.org/2000/svg" xmlns:xlink="http://www.w3.org/1999/xlink" x="0px" y="0px"
	 viewBox="0 0 100 100" style="enable-background:new 0 0 100 100;" xml:space="preserve">
<style type="text/css">
	.st0{fill:#FFFFFF;}
	.st1{fill:#8B9DEB;}
	.st2{fill:#5161A9;}
</style>
<g>
	<path class="st0" d="M83.8,100L16,99.8c-8.8,0-16-7.2-16-16L0.2,16c0-8.8,7.2-16,16-16L84,0.2c8.8,0,16,7.2,16,16L99.8,84
		C99.8,92.9,92.6,100,83.8,100z"/>
	<g>
		<path class="st1" d="M64.8,25.4l-8.5,0l0-5.7c0.8-0.2,1.4-0.9,1.4-1.8c0-1-0.8-1.8-1.8-1.8l-0.4,0l0-3.5c0-1.4-1.2-2.6-2.6-2.6
			l-7.1,0c-1.4,0-2.6,1.2-2.6,2.6l0,3.6c-0.8,0.2-1.4,0.9-1.4,1.8c0,0.9,0.6,1.6,1.4,1.8l0,5.7l-7.9,0c-4,0-7.2,3.2-7.3,7.2l-0.1,45
			c0,4,3.2,7.2,7.2,7.3l29.5,0.1c4,0,7.2-3.2,7.3-7.2l0.1-45C72.1,28.7,68.8,25.4,64.8,25.4z"/>
		<g id="XMLID_8_">
			<path id="XMLID_14_" class="st2" d="M62,62.8c0.3,0.6,1.1,0.9,1.8,0.5c0.7-0.3,1-1.1,0.7-1.8c-0.2-0.4-0.7-0.7-1.2-0.7
				c0.1-0.2,0.1-0.5,0-0.7c-0.3-0.5-0.9-0.7-1.5-0.4c-0.5,0.2-0.8,0.8-0.6,1.3l-22.4,11c0,0,0-0.1,0-0.1c-0.3-0.6-1.1-0.9-1.8-0.5
				c-0.7,0.3-1,1.1-0.7,1.8c0.2,0.3,0.5,0.5,0.8,0.6c-0.2,0.3-0.2,0.6-0.1,0.9c0.3,0.5,0.9,0.7,1.5,0.4c0.6-0.3,0.8-0.9,0.6-1.4
				l22.9-11.2C61.9,62.7,61.9,62.8,62,62.8z"/>
			<path id="XMLID_13_" class="st2" d="M38.7,62.8c-0.3,0.6-1.1,0.9-1.8,0.5c-0.7-0.3-1-1.1-0.7-1.8c0.2-0.4,0.7-0.7,1.2-0.7
				c-0.1-0.2-0.1-0.5,0-0.7c0.3-0.5,0.9-0.7,1.5-0.4c0.5,0.3,0.8,0.8,0.6,1.3l22.4,11.1c0,0,0-0.1,0-0.1c0.3-0.6,1.1-0.9,1.8-0.5
				c0.7,0.3,1,1.1,0.7,1.8c-0.2,0.3-0.5,0.5-0.8,0.6c0.2,0.3,0.2,0.6,0.1,0.9c-0.3,0.5-0.9,0.7-1.5,0.4c-0.6-0.3-0.8-0.9-0.6-1.4
				L38.8,62.6C38.7,62.6,38.7,62.7,38.7,62.8z"/>
			<path id="XMLID_9_" class="st2" d="M60.3,50.9c2.9-1.4,4.1-5.1,3.1-8.2c-3.2-10.1-24.5-10-27.7-0.1c-1,3,0.2,6.8,3.1,8.2
				c-1.5,0-2.7,2.1-2.1,3.5c0.8,2,4.1,1.5,5.7,1.6c0,0.1,0,0.1,0,0.2c-0.1,2.8,2.3,5.1,5.1,5.1l4,0c2.8,0,5.2-2.3,5.1-5.1
				c0-0.1,0-0.1,0-0.2c1.7-0.1,5,0.4,5.7-1.6C62.9,53,61.8,50.9,60.3,50.9z M47.1,51.8c-0.7,3.5-8.3,1.3-5.5-2.1
				c0.5-0.7,1.4-1,2.3-1c0.9,0,1.7,0.4,2.3,1C46.8,50.3,47.3,51.1,47.1,51.8z M51.8,51.8c-0.1-0.8,0.3-1.5,1-2.1
				c0.7-0.6,1.5-0.9,2.3-1c0.9,0,1.7,0.3,2.3,1C60.1,53.2,52.5,55.4,51.8,51.8z"/>
		</g>
	</g>
</g>
</svg>
