<?xml version="1.0" encoding="utf-8"?>
<!-- Generator: Adobe Illustrator 21.0.0, SVG Export Plug-In . SVG Version: 6.00 Build 0)  -->
<svg version="1.1" id="Layer_1" xmlns="http://www.w3.org/2000/svg" xmlns:xlink="http://www.w3.org/1999/xlink" x="0px" y="0px"
	 viewBox="0 0 100 100" style="enable-background:new 0 0 100 100;" xml:space="preserve">
<style type="text/css">
	.st0{fill:#FFFFFF;}
	.st1{clip-path:url(#SVGID_2_);}
	.st2{fill:#6078DC;}
	.st3{fill:#5669B6;}
	.st4{fill:#323C66;}
	.st5{fill:#7789DC;}
	.st6{fill:#8B9DEB;}
	.st7{fill:#C34E46;}
	.st8{fill:#EB7B55;}
	.st9{font-family:'Montserrat-ExtraBold';}
	.st10{font-size:7.2134px;}
</style>
<g>
	<path class="st0" d="M78,100H22C9.8,100,0,90.2,0,78V22C0,9.8,9.8,0,22,0h56c12.2,0,22,9.8,22,22v56C100,90.2,90.2,100,78,100z"/>
	<g>
		<defs>
			<path id="SVGID_1_" d="M78,100H22C9.8,100,0,90.2,0,78V22C0,9.8,9.8,0,22,0h56c12.2,0,22,9.8,22,22v56C100,90.2,90.2,100,78,100z
				"/>
		</defs>
		<clipPath id="SVGID_2_">
			<use xlink:href="#SVGID_1_"  style="overflow:visible;"/>
		</clipPath>
		<g class="st1">
			<path class="st2" d="M42.5,85.5c-9.8,0.4-10.8-7.4-10.8-10.8c3.1-1,6.6-1.5,10.5-1.5c3.8,0,7.3,0.5,10.4,1.5
				C52.9,77.9,52.3,85.1,42.5,85.5z"/>
			<path class="st3" d="M31.7,74.7c0,3.5,0.9,11.2,10.8,10.8c9.8-0.4,10.4-7.7,10.1-10.9c22.4,6.7,28,34.1,28,34.1H7
				C7,108.7,10.1,81.5,31.7,74.7z"/>
			<path class="st4" d="M62.8,29.1c0,0,7.2,7.4,0,14.8c-7.2,7.4-42.1-0.4-42.1-0.4s-5.2-10.2,3.2-17.4c8.4-7.2,27.8-5,28-5
				C52.1,21.1,62.8,29.1,62.8,29.1z"/>
			<circle class="st5" cx="64.9" cy="46.6" r="5.8"/>
			<circle class="st5" cx="21.9" cy="46.6" r="5.8"/>
			<path class="st6" d="M48.6,70.1l0.7,8.3c0,0-0.3,4.1-7,4.9c-6.7,0.8-7.5-6.2-7.5-6.2l1.1-14.3C39.9,68.2,45.3,69.7,48.6,70.1z"/>
			<path class="st5" d="M35.9,66.4l1-12.9l10,1.4l1.6,18.8C45.3,73.3,39.9,71.8,35.9,66.4z"/>
			<path class="st6" d="M63.3,41.1c0.2,3.1,0,4-0.3,7.1c-0.7,6.1-3.6,11.4-9.1,14.3c-5.5,2.9-13,4-18.9,1.6
				c-4.6-1.9-8.1-5.2-9.9-9.7C23,49.2,23,42.6,23.3,37C24.3,16.5,41,16.8,41,16.8S63.3,15.1,63.3,41.1z"/>
			<path class="st4" d="M55.4,33.2c0.9,1.5,2.3,2.5,3.9,2.9c2.3,0.6,5.3,0.6,6.5-2.5c2.1-5.3-1-9.2-1-9.2s7-5.7,1.8-10.3
				C61.4,9.7,58,15,58,15s-0.6-4.8-5.5-5.2c-4.9-0.4-6.5,4.4-6.5,4.4s-2.8-4.7-8.5-3.6c-5.7,1.1-4.6,7-4.6,7S31,16.3,28,17
				c-4.8,1-7.1,6.4-6.1,11.9c0.7,3.6-0.1,6.9-0.7,8.8c-0.4,1.2,0.2,2.2,0.7,2.1c1.3-0.3,1.5-12.7,6.3-12.4c0.2,2.8,1.5,7.3,5.2,6.2
				c0.9-0.3,1.7-0.9,2.3-1.6c1-1.2,1.4-2.7,2.5-3.8c0.7-0.7,1.5-1.4,2.5-1.8c2.2-1.1,4.6-0.9,6.8,0C51.4,28,53.9,30.6,55.4,33.2z"/>
		</g>
		<g class="st1">
			<path class="st4" d="M82.5,97.1c0,0-14.8-24-21.4-24.3l-1.6,9.6c0,0,10.3,13.9,9.3,18.5C67.7,105.4,82.5,97.1,82.5,97.1z"/>
			<path class="st4" d="M39.2,61.8c0,0-30.7,15.7-35.6,33.6l3.1,4.2l8.7,1.3c0,0,20.4-28.2,27.4-28.7C49.9,71.6,39.2,61.8,39.2,61.8
				z"/>
			<g>
				<path class="st7" d="M48.9,96.9c1.1-1.8,1.8-3.8,2.3-5.8c0.6-2.2,0.9-4.5,1.1-6.7c0-0.6,0.1-1.2,0.1-1.9c1.2-0.8,2-1.2,2-1.3
					c0.1-0.1,1.2,9.6,1.3,13.3c0.1,3.7-1.6,4.8-1.6,4.8c-2.1,1.5-4.1,1.1-5.7-0.3c-0.3-0.3-0.4-0.7-0.1-1.1
					C48.4,97.6,48.7,97.3,48.9,96.9z"/>
				<path class="st8" d="M53.4,62.5c-1-3.5-2.3-6.9-4.2-9.9c-0.9-1.5-2.4-3.1-4.2-2.8c-1.8,0.3-2.7,2.3-3.3,4
					c-2.7,7.5-5.3,15.4-10.9,21.1C28.6,77,26,78.8,23.7,81c-2.3,2.2-4.4,4.8-5,7.9c-0.5,2.3,0.2,5.1,2.4,6c3.1,1.3,6.4-2.2,9.8-1.7
					c1.8,0.2,3.3,1.6,4.2,3.2c0.9,1.6,1.2,3.4,1.5,5.2c0.2,1.1,0.4,2.2,1,3.1c0.6,0.9,1.6,1.6,2.7,1.5c1.6-0.2,2.5-1.8,3.2-3.2
					c1.2-2.6,2.4-5.1,3.5-7.7c0.7-1.6,1.7-3.4,3.5-3.8c1.6-0.3,3.2,0.9,3.9,2.4c0.7,1.6,0.4,3.3-0.4,5.4c1.3-0.7,2.3-4.1,2.4-5.3
					c0.3-2.6,0.4-5.2,0.4-7.8c0-5.2-0.4-10.4-1.3-15.5C54.9,68,54.2,65.2,53.4,62.5z"/>
				<path class="st7" d="M45.5,57.7c1.2-0.2,1.9,14.3,0.9,22.9c-1,8.6-4.6,19.1-5.8,18.6c-1.3-0.5,4.8-10.9,4.3-21.7
					c-0.1-1.5-1.2-1.6-2,0.9c-0.8,2.5-1.4,0.2,0.2-5.6C44.5,66.9,44.7,57.8,45.5,57.7z"/>
			</g>
			<path class="st6" d="M51.8,78.2c0.5,0.3,3.5,1.2,5.1,1.3c-1-0.1-1.7-0.1-2.6-0.2c-1-0.2-2.7-0.7-2.9,0.2c-0.2,0.9,0.8,2,2.3,2.8
				c1.8,1,3.4,1.2,4.1,1.4c0.8,0.2,2.1-0.1,2.7-1.6c1-2.7,1.6-5.5,1.7-8.3c0.1-3.1-1.1-3.3-2.4-4.1c-1.7-1-5.4,0.1-5.6,1.5
				c-0.3,1.4,2.6,0.2,4.5,1.5c-1.4-0.9-5.7-0.2-6.4,1.4c-0.4,0.8,0.6,1,1,1.1c1.4,0.1,3-0.2,4.3,0.6c-1.2-0.2-4.5-0.4-5.6,0.3
				C50.9,76.7,51.2,77.8,51.8,78.2z"/>
		</g>
		<g class="st1">
			<path class="st4" d="M31.6,42.8c0.1-0.1,0.2-0.3,0.3-0.4c0.1-0.1,0.3-0.1,0.3-0.3c0.1-0.2-0.1-0.3-0.2-0.5
				c-0.2-0.4-0.1-1,0.3-1.2c0.4-0.3,1-0.2,1.5-0.3c0.7-0.2,1.3-0.4,1.9-0.7c0.6-0.3,1.1-0.6,1.6-1c0.2-0.2,0.5-0.7,0.8-0.7
				c0.6-0.1,0.3,0.8,0.3,1.1c0.1,0.2,0.2,0.4,0.2,0.6c0,0.2-0.1,0.4-0.3,0.6c-0.8,1.2-1.9,2.2-3.1,2.8c-0.7,0.4-1.5,0.7-2.3,0.9
				c-0.3,0.1-0.6,0.1-0.9,0.1c-0.3-0.1-0.6-0.3-0.6-0.5C31.5,43.1,31.5,42.9,31.6,42.8z"/>
			<path class="st4" d="M57.2,42.7C57.2,42.7,57.2,42.8,57.2,42.7c-0.2,0.3-0.4,0.5-0.7,0.5c-0.9,0.2-1.9-0.2-2.7-0.7
				c-1-0.6-1.9-1.4-2.6-2.4c-0.2-0.3-0.4-0.6-0.4-1c0-0.2,0.1-0.5,0.1-0.7c0-0.1-0.1-0.3-0.1-0.4c0-0.7,0.7-0.1,0.9,0.1
				c0.3,0.3,0.7,0.6,1.1,0.8c0.5,0.3,1.1,0.6,1.7,0.7c0.6,0.2,1.4,0,1.9,0.4c0.2,0.2,0.4,0.5,0.4,0.7c0,0.3-0.3,0.5-0.2,0.8
				c0.1,0.2,0.3,0.3,0.5,0.4C57.2,42.2,57.3,42.5,57.2,42.7z"/>
			<g>
				<path class="st4" d="M32.8,47.4c0.3-0.2,0.8-0.8,1.1-0.9c0.6-0.4,1-0.6,1.7-0.8c0.7-0.2,1.7-0.3,2.3,0c0.6,0.3,1.9,1.3,1.7,2
					c-0.1,0.2-0.4,0.1-0.4-0.1c0.1-0.7-1.3-1-1.8-1.1c-0.6-0.1-1.4,0-2,0.2c-0.5,0.2-1.2,0.7-1.7,1c-0.5,0.3-1,0.8-1.6,0.8
					c-0.2,0-0.2-0.1-0.2-0.3C32.2,47.8,32.5,47.6,32.8,47.4z"/>
			</g>
			<g>
				<path class="st4" d="M49.3,47.6c0.3-0.2,0.8-0.8,1.1-0.9c0.6-0.4,1-0.6,1.7-0.8c0.7-0.2,1.7-0.3,2.3,0c0.6,0.3,1.9,1.3,1.7,2
					c-0.1,0.2-0.4,0.1-0.4-0.1c0.1-0.7-1.3-1-1.8-1.1c-0.6-0.1-1.4,0-2,0.2c-0.5,0.2-1.2,0.7-1.7,1c-0.5,0.3-1,0.8-1.6,0.8
					c-0.2,0-0.2-0.1-0.2-0.3C48.7,48,49.1,47.8,49.3,47.6z"/>
			</g>
		</g>
		<g class="st1">
			<text transform="matrix(0.9695 0.2452 -0.2452 0.9695 69.1899 61.1695)"><tspan x="0" y="0" class="st4 st9 st10">coff</tspan><tspan x="0" y="8.7" class="st4 st9 st10">   coff</tspan></text>
		</g>
	</g>
</g>
</svg>
