<?xml version="1.0" encoding="utf-8"?>
<!-- Generator: Adobe Illustrator 21.0.0, SVG Export Plug-In . SVG Version: 6.00 Build 0)  -->
<svg version="1.1" id="Layer_1" xmlns="http://www.w3.org/2000/svg" xmlns:xlink="http://www.w3.org/1999/xlink" x="0px" y="0px"
	 viewBox="0 0 100 100" style="enable-background:new 0 0 100 100;" xml:space="preserve">
<style type="text/css">
	.st0{fill:#FFFFFF;}
	.st1{clip-path:url(#SVGID_2_);}
	.st2{fill:#6078DC;}
	.st3{fill:#5669B6;}
	.st4{fill:#323C66;}
	.st5{fill:#7789DC;}
	.st6{fill:#8B9DEB;}
	.st7{fill:#EB7B55;}
</style>
<g>
	<path class="st0" d="M78,100H22C9.8,100,0,90.2,0,78V22C0,9.8,9.8,0,22,0h56c12.2,0,22,9.8,22,22v56C100,90.2,90.2,100,78,100z"/>
	<g>
		<defs>
			<path id="SVGID_1_" d="M78,100H22C9.8,100,0,90.2,0,78V22C0,9.8,9.8,0,22,0h56c12.2,0,22,9.8,22,22v56C100,90.2,90.2,100,78,100z
				"/>
		</defs>
		<clipPath id="SVGID_2_">
			<use xlink:href="#SVGID_1_"  style="overflow:visible;"/>
		</clipPath>
		<g class="st1">
			<path class="st2" d="M49.6,86c-9.8,0.4-10.8-7.4-10.8-10.8c3.1-1,6.6-1.5,10.5-1.5c3.8,0,7.3,0.5,10.4,1.5
				C60,78.3,59.4,85.6,49.6,86z"/>
			<path class="st3" d="M38.8,75.2c0,3.5,0.9,11.2,10.8,10.8c9.8-0.4,10.4-7.7,10.1-10.9c22.4,6.7,28,34.1,28,34.1H14.1
				C14.1,109.2,17.2,82,38.8,75.2z"/>
			<path class="st4" d="M69.9,29.6c0,0,7.2,7.4,0,14.8C62.7,51.8,27.8,44,27.8,44s-5.2-10.2,3.2-17.4c8.4-7.2,27.8-5,28-5
				C59.2,21.6,69.9,29.6,69.9,29.6z"/>
			<circle class="st5" cx="72" cy="47.1" r="5.8"/>
			<circle class="st5" cx="29" cy="47.1" r="5.8"/>
			<path class="st6" d="M70.4,41.6c0.2,3.1,0,4-0.3,7.1C69.4,54.7,66.5,60,61,62.9c-5.5,2.9-13,4-18.9,1.6c-4.6-1.9-8.1-5.2-9.9-9.7
				c-2.1-5.1-2.1-11.7-1.8-17.2c1-20.5,17.7-20.2,17.7-20.2S70.4,15.6,70.4,41.6z"/>
			<path class="st6" d="M55.7,70.6l0.7,8.3c0,0-0.3,4.1-7,4.9c-6.7,0.8-7.5-6.2-7.5-6.2L43,63.3C47,68.7,52.4,70.2,55.7,70.6z"/>
			<path class="st5" d="M43,66.9L44,54l10,1.4l1.6,18.8C52.4,73.8,47,72.3,43,66.9z"/>
			<ellipse class="st4" cx="59.5" cy="40.8" rx="1" ry="2.1"/>
			<ellipse class="st4" cx="40.5" cy="41.2" rx="1" ry="2.1"/>
			<path class="st4" d="M62.5,33.7c0.9,1.5,2.3,2.5,3.9,2.9c2.3,0.6,5.3,0.6,6.5-2.5c2.1-5.3-1-9.2-1-9.2s7-5.7,1.8-10.3
				c-5.3-4.5-8.7,0.8-8.7,0.8s-0.6-4.8-5.5-5.2c-4.9-0.4-6.5,4.4-6.5,4.4s-2.8-4.7-8.5-3.6c-5.7,1.1-4.6,7-4.6,7s-1.9-1.3-4.8-0.7
				c-4.8,1-7.1,6.4-6.1,11.9c0.7,3.6-0.1,6.9-0.7,8.8c-0.4,1.2,0.2,2.2,0.7,2.1c1.3-0.3,1.5-12.7,6.3-12.4c0.2,2.8,1.5,7.3,5.2,6.2
				c0.9-0.3,1.7-0.9,2.3-1.6c1-1.2,1.4-2.7,2.5-3.8c0.7-0.7,1.5-1.4,2.5-1.8c2.2-1.1,4.6-0.9,6.8,0C58.5,28.5,61,31.1,62.5,33.7z"/>
			<g>
				<path class="st7" d="M36,61.3c5.5,4.7,16.3,9.6,28.3,0c-3-3.6-1.6-8.3,1.9-13.5c-8.9-2.9-22.4-2.9-31.4,0
					C38.6,52.7,39.9,57.4,36,61.3z"/>
				<path class="st7" d="M35.9,48.3c-2.9-1.7-5-4.2-6.5-6.7"/>
				<path class="st7" d="M64.5,48.7c2.5-1.8,4.4-4.3,5.9-7.1"/>
			</g>
			<path class="st4" d="M55.5,37.7c0.2-0.6,0.7-1.2,1.2-1.6c0.5-0.4,1.2-0.7,1.9-0.8c0.7-0.1,1.5,0.1,2.1,0.4
				c0.3,0.1,0.6,0.4,0.8,0.6c0.2,0.2,0.4,0.5,0.6,0.8c-0.7-0.2-1.2-0.4-1.7-0.5c-0.5-0.1-1-0.1-1.5-0.1
				C57.8,36.7,56.8,37.2,55.5,37.7z"/>
			<path class="st4" d="M44.2,37.2c-1.1-0.9-2.2-1.2-3.3-1.1c-0.6,0-1.2,0.1-1.8,0.2c-0.3,0.1-0.6,0.1-0.9,0.2
				c-0.3,0.1-0.7,0.2-1,0.2c0.2-0.3,0.5-0.5,0.7-0.8c0.3-0.2,0.6-0.4,0.9-0.6c0.6-0.3,1.3-0.6,2.1-0.6c0.8,0,1.6,0.2,2.2,0.6
				C43.6,35.8,44.1,36.5,44.2,37.2z"/>
		</g>
	</g>
</g>
</svg>
