<?xml version="1.0" encoding="utf-8"?>
<!-- Generator: Adobe Illustrator 21.0.0, SVG Export Plug-In . SVG Version: 6.00 Build 0)  -->
<svg version="1.1" id="Layer_1" xmlns="http://www.w3.org/2000/svg" xmlns:xlink="http://www.w3.org/1999/xlink" x="0px" y="0px"
	 viewBox="0 0 100 100" style="enable-background:new 0 0 100 100;" xml:space="preserve">
<style type="text/css">
	.st0{fill:#FFFFFF;}
	.st1{clip-path:url(#SVGID_2_);}
	.st2{fill:#8B9DEB;}
	.st3{fill:#EB7B55;}
	.st4{fill:#687FDF;}
	.st5{fill:#CAD2F7;}
</style>
<g>
	<path class="st0" d="M78,100H22C9.8,100,0,90.2,0,78V22C0,9.8,9.8,0,22,0h56c12.2,0,22,9.8,22,22v56C100,90.2,90.2,100,78,100z"/>
	<g>
		<defs>
			<path id="SVGID_1_" d="M78,100H22C9.8,100,0,90.2,0,78V22C0,9.8,9.8,0,22,0h56c12.2,0,22,9.8,22,22v56C100,90.2,90.2,100,78,100z
				"/>
		</defs>
		<clipPath id="SVGID_2_">
			<use xlink:href="#SVGID_1_"  style="overflow:visible;"/>
		</clipPath>
		<g class="st1">
			<g>
				<path class="st2" d="M39.7,68.1c-3.9-1.1-4.2-3.3-6.1-5.7c-1.8-2.5-3.4-0.8-2.1,3c0.7,2,3.3,5,5.5,6.4c-4.8-1.9-5.4-7.2-7.5-7.9
					c-0.9-0.3-2,1.2-1.3,3.5c1.5,4.8,4.5,8,6.3,9.4c-4-1.4-4.6-6.1-6.2-7.3c-1.1-0.9-1.4,0.7-1.1,2.6c0.6,3.1,2.2,6.6,5.8,9.6
					c3.6,3,11.6,2.1,21,1.1c2.8-0.3,4.4,0.2,6.4-2.9c2-3.1,2.1-8.1,0.8-10c-1.8-2.4-7.4-3.9-13.1-4.1c-5.7-0.1-8.3-2.1-10.6-4.2
					c-2.2-2.1-3.5-1.2-3,0.3C35,63.3,36.3,65.1,39.7,68.1z"/>
				<path class="st3" d="M56.6,132.8c5.4,6.2,15,6.4,27.8-1.7c10.2-6.5,58.1-17.6,49.2-46.5C124.8,55.7,68,59.7,63,64.2
					c-5,4.5-4.8,18.1-1.6,22.1c3.2,4,40.8,2.9,39.1,6.1c-7.4,3.6-20.3,10.1-32.1,17.2C58.4,115.8,51.2,126.5,56.6,132.8z"/>
			</g>
			<g>
				<path class="st4" d="M0.4,18.1c0,0,20.9-9.1,34.6-0.8c6.4,3.9,8.8,11,9.8,15.2c0.1,0.4,1.4-0.7,1.9,1.1c0.1,0.3,0.1,0.9-0.2,1.4
					c-1.8,2.4-8.3,3.7-11.3,3.1c-0.3-0.1-0.8-0.7-0.9-1c-0.8-2.3,0.7-1.5,0.5-2c-1.4-3.5-2.8-8.9-7.8-11.6
					c-6.4-3.4-17.5-0.1-28.2,3.9C-12.1,31.5,0.4,18.1,0.4,18.1z"/>
				<path class="st5" d="M40.2,41.6c0,0-5.5,9.6,0.4,10.2C46.7,52.6,40.2,41.6,40.2,41.6z"/>
				<path class="st5" d="M44.6,37.9c0,0,1.6,8.8,4.3,7.3C51.6,43.5,44.6,37.9,44.6,37.9z"/>
				<path class="st5" d="M47.8,53.3c0,0-3,9.7,1.2,8.8C54.9,60.9,47.8,53.3,47.8,53.3z"/>
			</g>
		</g>
	</g>
</g>
</svg>
