<?xml version="1.0" encoding="utf-8"?>
<!-- Generator: Adobe Illustrator 21.0.0, SVG Export Plug-In . SVG Version: 6.00 Build 0)  -->
<svg version="1.1" xmlns="http://www.w3.org/2000/svg" xmlns:xlink="http://www.w3.org/1999/xlink" x="0px" y="0px"
	 viewBox="0 0 100 100" style="enable-background:new 0 0 100 100;" xml:space="preserve">
<style type="text/css">
	.st0{clip-path:url(#SVGID_2_);fill:#40406B;}
	.st1{clip-path:url(#SVGID_2_);}
	.st2{fill:#BCBCE2;}
	.st3{fill:#FFD3B6;}
	.st4{fill:#FFB7A0;}
	.st5{fill:#FFC19E;}
	.st6{fill:#222242;}
	.st7{fill:none;stroke:#001825;stroke-width:1.1318;stroke-linecap:round;stroke-linejoin:round;stroke-miterlimit:10;}
	.st8{fill:#001825;}
	.st9{fill:none;stroke:#001825;stroke-width:0.5659;stroke-linecap:round;stroke-linejoin:round;stroke-miterlimit:10;}
	.st10{fill:url(#SVGID_3_);}
	.st11{fill:#FFC49F;}
</style>
<g id="Layer_2">
</g>
<g id="Layer_1">
</g>
<g id="Layer_3">
	<g>
		<defs>
			<circle id="SVGID_1_" cx="50" cy="50" r="50"/>
		</defs>
		<clipPath id="SVGID_2_">
			<use xlink:href="#SVGID_1_"  style="overflow:visible;"/>
		</clipPath>
		<circle class="st0" cx="50" cy="50" r="50"/>
		<g class="st1">
			<g>
				<path class="st2" d="M93.2,119.9c-0.3-5.4-4.6-8.6-6.8-13.2c-3.1-6.5,2.4-12-4.7-18.4c-7.1-6.3-3.5-9.2-7.7-14.3
					c-4.3-5.1-13-3.6-13-3.6H43.1c0,0-8.7-1.5-13,3.6c-4.3,5.1-0.6,8-7.7,14.3c-7.1,6.3-1.6,11.8-4.7,18.4c-1.3,2.7-3.4,4.8-4.9,7.4
					c-7.2,11.7,3.8,26.4,16.4,26.4c0,0,45.7,0,45.8,0c5,0,9.9-2.1,13.4-5.7C92,130.8,93.5,125.2,93.2,119.9z"/>
				<path class="st3" d="M51.9,61.5l-8.6-1.4c0,0,0,11.3,0,19.2c0,7.6,8,9.4,8.6,9.6c0,0,0,0,0,0v0c0.6-0.1,8.5-1.9,8.5-9.5
					c0-7.9,0-19.2,0-19.2L51.9,61.5z"/>
				<path class="st4" d="M52,49.3l8.6-1.4c0,0,0,11.3,0,19.2c0,3.8-2,6.2-4,7.6c-2,1.4-4.4,2-6.9,1.9l0,0c-2.2-0.1-5.1-1.1-6-3.1
					c-0.6-1.4-0.2-3.6-0.2-6.3c0-7.9,0-19.2,0-19.2L52,49.3z"/>
				<g>
					<path class="st5" d="M36,45.4c0,0-0.1-1.5-3.1-2.1c-3-0.6-4.1,9.7,1.4,10.8C39.7,55.2,39.1,47.6,36,45.4z"/>
					<path class="st5" d="M63.8,51c0,0,0.7-1.4,3.7-0.8c3,0.6,0,10.5-5.4,9.4C56.6,58.6,60.1,51.8,63.8,51z"/>
					<path class="st3" d="M45.6,70.7L45.6,70.7c-8.3-1.7-13.7-9.8-12-18l2.3-11.4c1.7-8.3,9.8-13.7,18-12l0,0
						c8.3,1.7,13.7,9.8,12,18l-2.3,11.4C62,67,53.9,72.4,45.6,70.7z"/>
					<path class="st4" d="M61.6,57.4c0.9-4.6-5.1-4.3-12.1-5.7c-7.1-1.4-12.5-4-13.4,0.6c-0.9,4.6,5.7,1.1,12.8,2.6
						C55.9,56.3,60.7,62.1,61.6,57.4z"/>
					<path class="st6" d="M71.4,46.7c-4-5.4-1.5-5-2.1-10.4c-0.6-5.4-6.4-10-6.4-10s5.6-4.6,1.6-7.9c-4-3.4-8-2.5-8-2.5
						S52.9,9,46,13.2c-6,3.5-2.8,8.2-0.4,10.3c-2.1,0.8-6.5,2.8-8.5,6.3c-2.7,4.7-0.4,5.7-6.1,9.1c-5.7,3.5,5.8,9,2.7,13.2
						c-3.1,4.2-1,6.6-1,6.6s-0.7-3.5,2.5-5c3.2-1.5,4.4-4,1.6-9.2c-2.7-5.1,16.4-0.4,21.6-10.9c0.7,11.7,10,12.3,5.5,16
						c-4.5,3.7-4.4,6.5-2,9.1c2.4,2.6,0.4,5.6,0.4,5.6s2.9-1.4,1.6-6.5C62.6,52.7,75.4,52.1,71.4,46.7z"/>
					<g>
						<path class="st7" d="M41.8,46.1c0,0,2.8,0.9,5.7-0.9"/>
						<path class="st7" d="M58.5,49.5c0,0-2.9-0.3-4.9-3"/>
						
							<ellipse transform="matrix(0.1968 -0.9805 0.9805 0.1968 -6.5328 95.9148)" class="st8" cx="55.3" cy="51.9" rx="1.2" ry="1.2"/>
						
							<ellipse transform="matrix(0.1968 -0.9805 0.9805 0.1968 -13.4886 82.8211)" class="st8" cx="43.8" cy="49.6" rx="1.2" ry="1.2"/>
					</g>
					<path class="st9" d="M50.1,48.5c0,0-4.1,6.3-1.4,6.8"/>
					<path class="st9" d="M46.8,59.8c0,0,2.6,0.4,3.9,2.4"/>
					<path class="st8" d="M48.4,60.3c0,0,1.1,3.8,2.6,1.8"/>
					<linearGradient id="SVGID_3_" gradientUnits="userSpaceOnUse" x1="27.9876" y1="65.2343" x2="48.4453" y2="65.2343">
						<stop  offset="0" style="stop-color:#FFFFFF"/>
						<stop  offset="0.9874" style="stop-color:#FFFFFF;stop-opacity:0.2"/>
						<stop  offset="1" style="stop-color:#000000"/>
					</linearGradient>
					<path class="st10" d="M47.5,60.8l-5-0.1c-0.8-1.6-2.6-2.5-4.5-2.1c-0.6,0.1-1.1,0.4-1.5,0.7c-0.7-0.6-1.6-0.8-2.6-0.6
						c-1.5,0.3-2.4,1.7-2.3,3.1c-0.2,0-0.4,0-0.6,0.1c-2.1,0.5-3.5,2.6-3,4.6c0.5,2.1,2.6,3.3,4.7,2.8c0,0,0,0,0,0c0,0,0,0,0,0
						c0.4,1.9,2.4,3.1,4.4,2.6c1.3-0.3,2.3-1.2,2.7-2.4c0.3,0,0.7,0,1-0.1c1.6-0.4,2.6-1.9,2.2-3.4c0-0.2-0.1-0.4-0.2-0.6l5.5-2.8
						L47.5,60.8z"/>
				</g>
				<path class="st11" d="M39.6,119.8l8-17.6c0,0,2.8-1,3.8-5.5c1-4.5,2.8-6.2,4.6-7.4c1.2-0.7-0.1-2.9-4.8,3
					c2.4-5.4,5.4-5.5,5.2-6.3c-0.2-0.8-3-0.6-6,4c2-4.8,5.6-5.7,5.3-6.6c-0.4-1.3-5.6,1.5-7.1,6.6c0.5-5.3,4.6-6.5,4.3-7.9
					c-0.3-1.4-6,2.7-7.2,10.2c-0.7-2.6,1.9-5.4,0.9-6.1c-1-0.7-4.9,6.2-3,14.1c-4,6.1-11.1,15-11.1,15L39.6,119.8z"/>
				<path class="st2" d="M17.8,136.4c0,0-7.9-4.6-3.3-10.6c4.3-5.7,6.2-16.6,18.8-16.1c1,0,2,0.4,2.7,0.9c2,1.5,4.6,2.5,6.3,2.9
					c1.1,0.3,2,1,2.2,1.7c0.7,1.9,1.3,5.8-1.8,10.3c-4.4,6.5-2.8,15.6-11.9,14.7C21.7,139.4,17.8,136.4,17.8,136.4z"/>
				<path class="st9" d="M59.2,66.6c0,0-6.2,6.2-14.7,4"/>
			</g>
		</g>
	</g>
</g>
</svg>
