<?xml version="1.0" encoding="utf-8"?>
<!-- Generator: Adobe Illustrator 21.0.0, SVG Export Plug-In . SVG Version: 6.00 Build 0)  -->
<svg version="1.1" id="Layer_5" xmlns="http://www.w3.org/2000/svg" xmlns:xlink="http://www.w3.org/1999/xlink" x="0px" y="0px"
	 viewBox="0 0 512 512" style="enable-background:new 0 0 512 512;" xml:space="preserve">
<style type="text/css">
	.st0{fill:#FFFFFF;}
</style>
<path class="st0" d="M401.6,262.8l17.4-17.4L370,196.5l-17.4,17.4l7.9,7.9l-22,22L322.8,228l-17.4,17.4l7.9,7.9l-22,22v-35.9
	l-35.5-23.6V206c6.5,0,11.8-5.3,11.8-11.8v-7.9c0-6.5-5.3-11.8-11.8-11.8h-47.3c-6.5,0-11.8,5.3-11.8,11.8v7.9
	c0,6.5,5.3,11.8,11.8,11.8v9.7l-35.5,23.6V336c0,10.9,8.8,19.7,19.7,19.7H240v2.3l-21.3,21.3l5.9,5.9L197.8,412l5.6,5.6l26.8-26.8
	l5.9,5.9l21.3-21.3h31.5l73.2-73.2l7.9,7.9l17.4-17.4l-15.8-15.8l22-22L401.6,262.8z M370,207.6l37.8,37.8l-6.2,6.2l-37.8-37.8
	L370,207.6z M250.7,221.7l23.6,15.8H190l23.6-15.8H250.7z M204.6,194.1v-7.9c0-2.2,1.8-3.9,3.9-3.9h47.3c2.2,0,3.9,1.8,3.9,3.9v7.9
	c0,2.2-1.8,3.9-3.9,3.9h-47.3C206.3,198.1,204.6,196.3,204.6,194.1z M247.9,206v7.9h-31.5V206H247.9z M192.7,347.8
	c-6.5,0-11.8-5.3-11.8-11.8v-90.6h102.4v37.8l-7.9,7.9v-29.9c0-4.3-3.5-7.9-7.9-7.9h-70.9c-4.3,0-7.9,3.5-7.9,7.9V332
	c0,4.3,3.5,7.9,7.9,7.9H240v7.9H192.7z M247.9,358v-20.4l29.9,29.9h-20.4L247.9,358z M244,322.5v-14.1h14.1L244,322.5z M212.4,300.5
	v-7.9h15.8v-15.8h7.9v15.8h15.8v7.9h-15.8v15.8h-7.9v-15.8H212.4z M244,284.8V269h-23.6v15.8h-15.8v23.6h15.8v15.8h22l-2.3,2.3v5.6
	h-43.3v-70.9h70.9v37.8l-7.9,7.9v-22L244,284.8z M229.8,379.3l14.1-14.1l6.2,6.2l-14.1,14.1L229.8,379.3z M346.4,306.8l-20.9-20.9
	l-5.6,5.6l20.9,20.9l-6.2,6.2l-13-13l-5.6,5.6l13,13l-6.2,6.2l-20.9-20.9l-5.6,5.6l20.9,20.9l-6.2,6.2l-13-13l-5.6,5.6l13,13
	l-6.2,6.2l-20.9-20.9l-5.6,5.6l20.9,20.9l-6.2,6.2l-37.8-37.8l69.3-69.3l37.8,37.8L346.4,306.8z M370,298.9l-53.5-53.5l6.2-6.2
	l53.5,53.5L370,298.9z M366.1,271.3l-22-22l22-22l22,22L366.1,271.3z"/>
<path class="st0" d="M256,0C114.6,0,0,114.6,0,256s114.6,256,256,256s256-114.6,256-256S397.4,0,256,0z M256,493.5
	C124.8,493.5,18.5,387.2,18.5,256S124.8,18.5,256,18.5S493.5,124.8,493.5,256S387.2,493.5,256,493.5z"/>
<rect x="245" y="3.7" transform="matrix(0.7071 0.7071 -0.7071 0.7071 253.1744 -105.6367)" class="st0" width="18.2" height="498.2"/>
</svg>
